<svg width="75" height="77" viewBox="0 0 75 77" fill="none" xmlns="http://www.w3.org/2000/svg">
<g filter="url(#filter0_d_31_231)">
<path fill-rule="evenodd" clip-rule="evenodd" d="M64.125 35.5C64.125 50.2046 52.2046 62.125 37.5 62.125C22.7954 62.125 10.875 50.2046 10.875 35.5C10.875 20.7954 22.7954 8.875 37.5 8.875C52.2046 8.875 64.125 20.7954 64.125 35.5ZM37.5 51.2917C36.9477 51.2917 36.5 50.844 36.5 50.2917V36.5H22.7083C22.156 36.5 21.7083 36.0523 21.7083 35.5C21.7083 34.9477 22.156 34.5 22.7083 34.5H36.5V20.7083C36.5 20.156 36.9477 19.7083 37.5 19.7083C38.0523 19.7083 38.5 20.156 38.5 20.7083V34.5H52.2917C52.844 34.5 53.2917 34.9477 53.2917 35.5C53.2917 36.0523 52.844 36.5 52.2917 36.5H38.5V50.2917C38.5 50.844 38.0523 51.2917 37.5 51.2917Z" fill="white"/>
</g>
<defs>
<filter id="filter0_d_31_231" x="0.875" y="2.875" width="73.25" height="73.25" filterUnits="userSpaceOnUse" color-interpolation-filters="sRGB">
<feFlood flood-opacity="0" result="BackgroundImageFix"/>
<feColorMatrix in="SourceAlpha" type="matrix" values="0 0 0 0 0 0 0 0 0 0 0 0 0 0 0 0 0 0 127 0" result="hardAlpha"/>
<feOffset dy="4"/>
<feGaussianBlur stdDeviation="5"/>
<feComposite in2="hardAlpha" operator="out"/>
<feColorMatrix type="matrix" values="0 0 0 0 0 0 0 0 0 0 0 0 0 0 0 0 0 0 0.25 0"/>
<feBlend mode="normal" in2="BackgroundImageFix" result="effect1_dropShadow_31_231"/>
<feBlend mode="normal" in="SourceGraphic" in2="effect1_dropShadow_31_231" result="shape"/>
</filter>
</defs>
</svg>
