<svg width="96" height="82" viewBox="0 0 96 82" fill="none" xmlns="http://www.w3.org/2000/svg">
<path d="M62 16C66.4 16 70 12.4 70 8C70 3.6 66.4 0 62 0C57.6 0 54 3.6 54 8C54 12.4 57.6 16 62 16ZM20 42C8.8 42 0 50.8 0 62C0 73.2 8.8 82 20 82C31.2 82 40 73.2 40 62C40 50.8 31.2 42 20 42ZM20 76C12.4 76 6 69.6 6 62C6 54.4 12.4 48 20 48C27.6 48 34 54.4 34 62C34 69.6 27.6 76 20 76ZM43.2 36L52.8 26.4L56 29.6C61.2 34.8 68 38 76.4 38V30C70.4 30 65.6 27.6 62 24L54.4 16.4C52.4 14.8 50.4 14 48 14C45.6 14 43.6 14.8 42.4 16.4L31.2 27.6C29.6 29.2 28.8 31.2 28.8 33.2C28.8 35.6 29.6 37.6 31.2 38.8L44 50V70H52V45.2L43.2 36ZM76 42C64.8 42 56 50.8 56 62C56 73.2 64.8 82 76 82C87.2 82 96 73.2 96 62C96 50.8 87.2 42 76 42ZM76 76C68.4 76 62 69.6 62 62C62 54.4 68.4 48 76 48C83.6 48 90 54.4 90 62C90 69.6 83.6 76 76 76Z" fill="#261132"/>
</svg>
