<svg width="90" height="75" viewBox="0 0 90 75" fill="none" xmlns="http://www.w3.org/2000/svg">
<path d="M17 42H29M5 26L13 30L18.0826 14.7523C19.1317 11.605 19.6562 10.0314 20.6292 8.86792C21.4883 7.84054 22.5917 7.04529 23.838 6.5551C25.2494 6 26.9082 6 30.2257 6H59.7743C63.0918 6 64.7506 6 66.162 6.5551C67.4083 7.04529 68.5117 7.84054 69.3708 8.86792C70.3438 10.0314 70.8683 11.605 71.9174 14.7523L77 30L85 26M61 42H73M24.2 30H65.8C72.5206 30 75.8809 30 78.4479 31.3079C80.7058 32.4584 82.5416 34.2942 83.6921 36.5521C85 39.1191 85 42.4794 85 49.2V60C85 61.8586 85 62.7879 84.8463 63.5607C84.215 66.7342 81.7342 69.215 78.5607 69.8463C77.7879 70 76.8586 70 75 70H73C68.5817 70 65 66.4183 65 62C65 60.8954 64.1046 60 63 60H27C25.8954 60 25 60.8954 25 62C25 66.4183 21.4183 70 17 70H15C13.1414 70 12.2121 70 11.4393 69.8463C8.26575 69.215 5.78497 66.7342 5.15372 63.5607C5 62.7879 5 61.8586 5 60V49.2C5 42.4794 5 39.1191 6.30792 36.5521C7.4584 34.2942 9.29417 32.4584 11.5521 31.3079C14.1191 30 17.4794 30 24.2 30Z" stroke="#261132" stroke-width="10" stroke-linecap="round" stroke-linejoin="round"/>
</svg>
