<svg width="80" height="80" viewBox="0 0 80 80" fill="none" xmlns="http://www.w3.org/2000/svg">
<path d="M20 36.6667H33.3333M26.6667 30.0001V43.3334M50 40.0001H50.0333M60 33.3334H60.0333M34.8298 16.6667H45.1702C53.9198 16.6667 58.2946 16.6667 61.7285 18.3249C64.7519 19.7847 67.2638 22.1237 68.9354 25.0354C70.834 28.3424 71.1457 32.7061 71.7691 41.4335L72.5892 52.9151C72.9913 58.5448 68.5325 63.3334 62.8885 63.3334C60.0022 63.3334 57.265 62.0514 55.4172 59.8341L54.1667 58.3334C53.0229 56.9609 52.4509 56.2744 51.7996 55.7199C50.4344 54.5573 48.7817 53.7832 47.0145 53.4787C46.1716 53.3334 45.2782 53.3334 43.4915 53.3334H36.5085C34.7218 53.3334 33.8284 53.3334 32.9855 53.4787C31.2183 53.7832 29.5656 54.5573 28.2004 55.7199C27.5491 56.2745 26.9772 56.9608 25.8333 58.3334L24.5828 59.8341C22.735 62.0514 19.9978 63.3334 17.1115 63.3334C11.4675 63.3334 7.00871 58.5448 7.41084 52.9151L8.23095 41.4335C8.85434 32.7061 9.16603 28.3424 11.0646 25.0354C12.7362 22.1237 15.2481 19.7847 18.2715 18.3249C21.7054 16.6667 26.0802 16.6667 34.8298 16.6667Z" stroke="#261132" stroke-width="10" stroke-linecap="round" stroke-linejoin="round"/>
</svg>
