<svg width="90" height="78" viewBox="0 0 90 78" fill="none" xmlns="http://www.w3.org/2000/svg">
<path d="M5 21.5C5 30.6127 12.3873 38 21.5 38C22.7235 38 23.3353 38 23.6523 38.1094C24.3155 38.3382 24.6618 38.6845 24.8906 39.3477C25 39.6647 25 40.1613 25 41.1544V66.5C25 70.0899 27.9101 73 31.5 73C35.0899 73 38 70.0899 38 66.5V21.5C38 12.3873 30.6127 5 21.5 5C12.3873 5 5 12.3873 5 21.5Z" stroke="#261132" stroke-width="10" stroke-linecap="round" stroke-linejoin="round"/>
<path d="M85 21.5C85 30.6127 77.6127 38 68.5 38C67.2765 38 66.6647 38 66.3477 38.1094C65.6845 38.3382 65.3382 38.6845 65.1094 39.3477C65 39.6647 65 40.1613 65 41.1544V66.5C65 70.0899 62.0899 73 58.5 73C54.9101 73 52 70.0899 52 66.5V21.5C52 12.3873 59.3873 5 68.5 5C77.6127 5 85 12.3873 85 21.5Z" stroke="#261132" stroke-width="10" stroke-linecap="round" stroke-linejoin="round"/>
</svg>
