<svg width="24" height="23" viewBox="0 0 24 23" fill="none" xmlns="http://www.w3.org/2000/svg">
<g clip-path="url(#clip0_28_450)">
<path d="M11 3.76106H6.8C5.11984 3.76106 4.27976 3.76106 3.63803 4.06779C3.07354 4.33759 2.6146 4.7681 2.32698 5.29762C2 5.8996 2 6.68764 2 8.26372V16.1434C2 17.7194 2 18.5075 2.32698 19.1095C2.6146 19.639 3.07354 20.0695 3.63803 20.3393C4.27976 20.646 5.11984 20.646 6.8 20.646H15.2C16.8802 20.646 17.7202 20.646 18.362 20.3393C18.9265 20.0695 19.3854 19.639 19.673 19.1095C20 18.5075 20 17.7194 20 16.1434V12.2035M7.99997 15.0177H9.67452C10.1637 15.0177 10.4083 15.0177 10.6385 14.9659C10.8425 14.9199 11.0376 14.8441 11.2166 14.7412C11.4184 14.6252 11.5914 14.463 11.9373 14.1385L21.5 5.16814C22.3284 4.39103 22.3284 3.13109 21.5 2.35398C20.6716 1.57687 19.3284 1.57687 18.5 2.35398L8.93723 11.3243C8.59133 11.6488 8.41838 11.8111 8.29469 12.0004C8.18504 12.1682 8.10423 12.3512 8.05523 12.5427C7.99997 12.7586 7.99997 12.988 7.99997 13.4469V15.0177Z" stroke="#261132" stroke-width="2" stroke-linecap="round" stroke-linejoin="round"/>
</g>
<defs>
<clipPath id="clip0_28_450">
<rect width="24" height="22.5133" fill="white" transform="translate(0 0.0088501)"/>
</clipPath>
</defs>
</svg>
