<svg width="80" height="80" viewBox="0 0 80 80" fill="none" xmlns="http://www.w3.org/2000/svg">
<path d="M23.3333 48.3333H56.6667M20 33.3333H20.0333M33.3333 33.3333H33.3667M46.6667 33.3333H46.7M60 33.3333H60.0333M17.3333 60H62.6667C66.4003 60 68.2672 60 69.6933 59.2734C70.9477 58.6342 71.9675 57.6143 72.6067 56.3599C73.3333 54.9339 73.3333 53.067 73.3333 49.3333V30.6667C73.3333 26.933 73.3333 25.0661 72.6067 23.6401C71.9675 22.3856 70.9477 21.3658 69.6933 20.7266C68.2672 20 66.4003 20 62.6667 20H17.3333C13.5996 20 11.7328 20 10.3067 20.7266C9.05231 21.3658 8.03244 22.3856 7.39328 23.6401C6.66666 25.0661 6.66666 26.933 6.66666 30.6667V49.3333C6.66666 53.067 6.66666 54.9339 7.39328 56.3599C8.03244 57.6143 9.05231 58.6342 10.3067 59.2734C11.7328 60 13.5996 60 17.3333 60Z" stroke="#261132" stroke-width="10" stroke-linecap="round" stroke-linejoin="round"/>
</svg>
