<svg width="91" height="74" viewBox="0 0 91 74" fill="none" xmlns="http://www.w3.org/2000/svg">
<path d="M9 53V17.8C9 13.3196 9 11.0794 9.87195 9.36808C10.6389 7.86278 11.8628 6.63893 13.3681 5.87195C15.0794 5 17.3196 5 21.8 5H68.2C72.6804 5 74.9206 5 76.6319 5.87195C78.1372 6.63893 79.3611 7.86278 80.1281 9.36808C81 11.0794 81 13.3196 81 17.8V53H59.651C58.6726 53 58.1834 53 57.7231 53.1105C57.3149 53.2085 56.9247 53.3701 56.5669 53.5894C56.1632 53.8368 55.8173 54.1827 55.1255 54.8745L54.8745 55.1255C54.1827 55.8173 53.8368 56.1632 53.4331 56.4106C53.0753 56.6299 52.6851 56.7915 52.2769 56.8895C51.8166 57 51.3274 57 50.349 57H39.651C38.6726 57 38.1834 57 37.7231 56.8895C37.3149 56.7915 36.9247 56.6299 36.5669 56.4106C36.1632 56.1632 35.8173 55.8173 35.1255 55.1255L34.8745 54.8745C34.1827 54.1827 33.8368 53.8368 33.4331 53.5894C33.0753 53.3701 32.6851 53.2085 32.2769 53.1105C31.8166 53 31.3274 53 30.349 53H9ZM9 53C6.79086 53 5 54.7909 5 57V58.3333C5 60.8133 5 62.0532 5.27259 63.0706C6.01233 65.8313 8.16871 67.9877 10.9294 68.7274C11.9468 69 13.1867 69 15.6667 69H74.3333C76.8133 69 78.0532 69 79.0705 68.7274C81.8313 67.9877 83.9877 65.8313 84.7274 63.0706C85 62.0532 85 60.8133 85 58.3333C85 57.0934 85 56.4734 84.8637 55.9647C84.4938 54.5844 83.4156 53.5062 82.0353 53.1363C81.5266 53 80.9066 53 79.6667 53H77" stroke="#261132" stroke-width="10" stroke-linecap="round" stroke-linejoin="round"/>
</svg>
