<svg width="155" height="185" viewBox="0 0 155 185" fill="none" xmlns="http://www.w3.org/2000/svg">
<g filter="url(#filter0_d_31_207)">
<path d="M17.3828 171.889L20.2148 159.926H21.7969L22.1582 161.918L19.1406 174.145H17.4414L17.3828 171.889ZM15.9277 159.926L18.2715 171.889L18.0762 174.145H16.1816L13.0273 159.926H15.9277ZM24.6484 171.84L26.9629 159.926H29.8633L26.7188 174.145H24.8242L24.6484 171.84ZM22.6855 159.926L25.5371 171.938L25.459 174.145H23.7598L20.7227 161.909L21.1133 159.926H22.6855ZM38.1504 171.762V167.055C38.1504 166.717 38.0951 166.427 37.9844 166.186C37.8737 165.939 37.7012 165.746 37.4668 165.61C37.2389 165.473 36.9427 165.405 36.5781 165.405C36.2656 165.405 35.9954 165.46 35.7676 165.571C35.5397 165.675 35.3639 165.828 35.2402 166.03C35.1165 166.225 35.0547 166.456 35.0547 166.723H32.2422C32.2422 166.274 32.3464 165.847 32.5547 165.444C32.763 165.04 33.0658 164.685 33.4629 164.379C33.86 164.067 34.332 163.823 34.8789 163.647C35.4323 163.471 36.0508 163.383 36.7344 163.383C37.5547 163.383 38.2839 163.52 38.9219 163.793C39.5599 164.067 40.0612 164.477 40.4258 165.024C40.7969 165.571 40.9824 166.254 40.9824 167.075V171.596C40.9824 172.175 41.0182 172.651 41.0898 173.022C41.1615 173.386 41.2656 173.705 41.4023 173.979V174.145H38.5605C38.4238 173.858 38.3197 173.5 38.248 173.071C38.1829 172.634 38.1504 172.198 38.1504 171.762ZM38.5215 167.709L38.541 169.301H36.9688C36.5977 169.301 36.2754 169.343 36.002 169.428C35.7285 169.513 35.5039 169.633 35.3281 169.789C35.1523 169.939 35.0221 170.115 34.9375 170.317C34.8594 170.519 34.8203 170.74 34.8203 170.981C34.8203 171.222 34.8757 171.44 34.9863 171.635C35.097 171.824 35.2565 171.974 35.4648 172.084C35.6732 172.189 35.9173 172.241 36.1973 172.241C36.6204 172.241 36.9883 172.156 37.3008 171.987C37.6133 171.817 37.8542 171.609 38.0234 171.362C38.1992 171.114 38.2904 170.88 38.2969 170.659L39.0391 171.85C38.9349 172.117 38.7917 172.394 38.6094 172.68C38.4336 172.967 38.209 173.237 37.9355 173.491C37.6621 173.738 37.3333 173.943 36.9492 174.106C36.5651 174.262 36.1094 174.34 35.582 174.34C34.9115 174.34 34.3027 174.207 33.7559 173.94C33.2155 173.666 32.7858 173.292 32.4668 172.817C32.1543 172.335 31.998 171.788 31.998 171.176C31.998 170.623 32.1022 170.131 32.3105 169.702C32.5189 169.272 32.8249 168.911 33.2285 168.618C33.6387 168.318 34.1497 168.093 34.7617 167.944C35.3737 167.787 36.0833 167.709 36.8906 167.709H38.5215ZM47.4629 165.883V174.145H44.6504V163.578H47.2969L47.4629 165.883ZM50.6465 163.51L50.5977 166.118C50.4609 166.098 50.2949 166.082 50.0996 166.069C49.9108 166.049 49.7383 166.039 49.582 166.039C49.1849 166.039 48.8398 166.092 48.5469 166.196C48.2604 166.293 48.0195 166.44 47.8242 166.635C47.6354 166.83 47.4922 167.068 47.3945 167.348C47.3034 167.628 47.2513 167.947 47.2383 168.305L46.6719 168.129C46.6719 167.446 46.7402 166.817 46.877 166.245C47.0137 165.665 47.2122 165.161 47.4727 164.731C47.7396 164.301 48.0651 163.969 48.4492 163.735C48.8333 163.5 49.2728 163.383 49.7676 163.383C49.9238 163.383 50.0833 163.396 50.2461 163.422C50.4089 163.442 50.5423 163.471 50.6465 163.51ZM56.2871 165.883V174.145H53.4746V163.578H56.1211L56.2871 165.883ZM59.4707 163.51L59.4219 166.118C59.2852 166.098 59.1191 166.082 58.9238 166.069C58.735 166.049 58.5625 166.039 58.4062 166.039C58.0091 166.039 57.6641 166.092 57.3711 166.196C57.0846 166.293 56.8438 166.44 56.6484 166.635C56.4596 166.83 56.3164 167.068 56.2188 167.348C56.1276 167.628 56.0755 167.947 56.0625 168.305L55.4961 168.129C55.4961 167.446 55.5645 166.817 55.7012 166.245C55.8379 165.665 56.0365 165.161 56.2969 164.731C56.5638 164.301 56.8893 163.969 57.2734 163.735C57.6576 163.5 58.097 163.383 58.5918 163.383C58.748 163.383 58.9076 163.396 59.0703 163.422C59.2331 163.442 59.3665 163.471 59.4707 163.51ZM67.6699 171.762V167.055C67.6699 166.717 67.6146 166.427 67.5039 166.186C67.3932 165.939 67.2207 165.746 66.9863 165.61C66.7585 165.473 66.4622 165.405 66.0977 165.405C65.7852 165.405 65.515 165.46 65.2871 165.571C65.0592 165.675 64.8835 165.828 64.7598 166.03C64.6361 166.225 64.5742 166.456 64.5742 166.723H61.7617C61.7617 166.274 61.8659 165.847 62.0742 165.444C62.2826 165.04 62.5853 164.685 62.9824 164.379C63.3796 164.067 63.8516 163.823 64.3984 163.647C64.9518 163.471 65.5703 163.383 66.2539 163.383C67.0742 163.383 67.8034 163.52 68.4414 163.793C69.0794 164.067 69.5807 164.477 69.9453 165.024C70.3164 165.571 70.502 166.254 70.502 167.075V171.596C70.502 172.175 70.5378 172.651 70.6094 173.022C70.681 173.386 70.7852 173.705 70.9219 173.979V174.145H68.0801C67.9434 173.858 67.8392 173.5 67.7676 173.071C67.7025 172.634 67.6699 172.198 67.6699 171.762ZM68.041 167.709L68.0605 169.301H66.4883C66.1172 169.301 65.7949 169.343 65.5215 169.428C65.248 169.513 65.0234 169.633 64.8477 169.789C64.6719 169.939 64.5417 170.115 64.457 170.317C64.3789 170.519 64.3398 170.74 64.3398 170.981C64.3398 171.222 64.3952 171.44 64.5059 171.635C64.6165 171.824 64.776 171.974 64.9844 172.084C65.1927 172.189 65.4368 172.241 65.7168 172.241C66.14 172.241 66.5078 172.156 66.8203 171.987C67.1328 171.817 67.3737 171.609 67.543 171.362C67.7188 171.114 67.8099 170.88 67.8164 170.659L68.5586 171.85C68.4544 172.117 68.3112 172.394 68.1289 172.68C67.9531 172.967 67.7285 173.237 67.4551 173.491C67.1816 173.738 66.8529 173.943 66.4688 174.106C66.0846 174.262 65.6289 174.34 65.1016 174.34C64.431 174.34 63.8223 174.207 63.2754 173.94C62.735 173.666 62.3053 173.292 61.9863 172.817C61.6738 172.335 61.5176 171.788 61.5176 171.176C61.5176 170.623 61.6217 170.131 61.8301 169.702C62.0384 169.272 62.3444 168.911 62.748 168.618C63.1582 168.318 63.6693 168.093 64.2812 167.944C64.8932 167.787 65.6029 167.709 66.4102 167.709H68.041ZM76.9238 165.834V174.145H74.1113V163.578H76.748L76.9238 165.834ZM76.5137 168.491H75.752C75.752 167.709 75.8529 167.006 76.0547 166.381C76.2565 165.75 76.5397 165.213 76.9043 164.77C77.2689 164.321 77.7018 163.979 78.2031 163.745C78.7109 163.504 79.2773 163.383 79.9023 163.383C80.3971 163.383 80.8496 163.455 81.2598 163.598C81.6699 163.741 82.0215 163.969 82.3145 164.282C82.6139 164.594 82.8418 165.008 82.998 165.522C83.1608 166.036 83.2422 166.664 83.2422 167.407V174.145H80.4102V167.397C80.4102 166.928 80.3451 166.564 80.2148 166.303C80.0846 166.043 79.8926 165.86 79.6387 165.756C79.3913 165.646 79.0853 165.59 78.7207 165.59C78.3431 165.59 78.0143 165.665 77.7344 165.815C77.4609 165.965 77.2331 166.173 77.0508 166.44C76.875 166.7 76.7415 167.006 76.6504 167.358C76.5592 167.709 76.5137 168.087 76.5137 168.491ZM93.4141 159.926V174.145H90.4941V159.926H93.4141ZM97.7891 159.926V162.221H86.1875V159.926H97.7891ZM102.912 165.883V174.145H100.1V163.578H102.746L102.912 165.883ZM106.096 163.51L106.047 166.118C105.91 166.098 105.744 166.082 105.549 166.069C105.36 166.049 105.188 166.039 105.031 166.039C104.634 166.039 104.289 166.092 103.996 166.196C103.71 166.293 103.469 166.44 103.273 166.635C103.085 166.83 102.941 167.068 102.844 167.348C102.753 167.628 102.701 167.947 102.688 168.305L102.121 168.129C102.121 167.446 102.189 166.817 102.326 166.245C102.463 165.665 102.661 165.161 102.922 164.731C103.189 164.301 103.514 163.969 103.898 163.735C104.283 163.5 104.722 163.383 105.217 163.383C105.373 163.383 105.533 163.396 105.695 163.422C105.858 163.442 105.992 163.471 106.096 163.51ZM114.295 171.762V167.055C114.295 166.717 114.24 166.427 114.129 166.186C114.018 165.939 113.846 165.746 113.611 165.61C113.383 165.473 113.087 165.405 112.723 165.405C112.41 165.405 112.14 165.46 111.912 165.571C111.684 165.675 111.508 165.828 111.385 166.03C111.261 166.225 111.199 166.456 111.199 166.723H108.387C108.387 166.274 108.491 165.847 108.699 165.444C108.908 165.04 109.21 164.685 109.607 164.379C110.005 164.067 110.477 163.823 111.023 163.647C111.577 163.471 112.195 163.383 112.879 163.383C113.699 163.383 114.428 163.52 115.066 163.793C115.704 164.067 116.206 164.477 116.57 165.024C116.941 165.571 117.127 166.254 117.127 167.075V171.596C117.127 172.175 117.163 172.651 117.234 173.022C117.306 173.386 117.41 173.705 117.547 173.979V174.145H114.705C114.568 173.858 114.464 173.5 114.393 173.071C114.327 172.634 114.295 172.198 114.295 171.762ZM114.666 167.709L114.686 169.301H113.113C112.742 169.301 112.42 169.343 112.146 169.428C111.873 169.513 111.648 169.633 111.473 169.789C111.297 169.939 111.167 170.115 111.082 170.317C111.004 170.519 110.965 170.74 110.965 170.981C110.965 171.222 111.02 171.44 111.131 171.635C111.242 171.824 111.401 171.974 111.609 172.084C111.818 172.189 112.062 172.241 112.342 172.241C112.765 172.241 113.133 172.156 113.445 171.987C113.758 171.817 113.999 171.609 114.168 171.362C114.344 171.114 114.435 170.88 114.441 170.659L115.184 171.85C115.079 172.117 114.936 172.394 114.754 172.68C114.578 172.967 114.354 173.237 114.08 173.491C113.807 173.738 113.478 173.943 113.094 174.106C112.71 174.262 112.254 174.34 111.727 174.34C111.056 174.34 110.447 174.207 109.9 173.94C109.36 173.666 108.93 173.292 108.611 172.817C108.299 172.335 108.143 171.788 108.143 171.176C108.143 170.623 108.247 170.131 108.455 169.702C108.663 169.272 108.969 168.911 109.373 168.618C109.783 168.318 110.294 168.093 110.906 167.944C111.518 167.787 112.228 167.709 113.035 167.709H114.666ZM125.16 172.143C125.505 172.143 125.811 172.078 126.078 171.948C126.345 171.811 126.553 171.622 126.703 171.381C126.859 171.134 126.941 170.844 126.947 170.512H129.594C129.587 171.254 129.389 171.915 128.998 172.495C128.607 173.067 128.083 173.52 127.426 173.852C126.768 174.177 126.033 174.34 125.219 174.34C124.398 174.34 123.682 174.203 123.07 173.93C122.465 173.657 121.96 173.279 121.557 172.797C121.153 172.309 120.85 171.743 120.648 171.098C120.447 170.447 120.346 169.75 120.346 169.008V168.725C120.346 167.976 120.447 167.28 120.648 166.635C120.85 165.984 121.153 165.418 121.557 164.936C121.96 164.448 122.465 164.067 123.07 163.793C123.676 163.52 124.385 163.383 125.199 163.383C126.065 163.383 126.824 163.549 127.475 163.881C128.132 164.213 128.646 164.689 129.018 165.307C129.395 165.919 129.587 166.645 129.594 167.485H126.947C126.941 167.133 126.866 166.814 126.723 166.528C126.586 166.241 126.384 166.013 126.117 165.844C125.857 165.668 125.535 165.58 125.15 165.58C124.74 165.58 124.405 165.668 124.145 165.844C123.884 166.013 123.682 166.248 123.539 166.547C123.396 166.84 123.295 167.175 123.236 167.553C123.184 167.924 123.158 168.315 123.158 168.725V169.008C123.158 169.418 123.184 169.812 123.236 170.19C123.288 170.567 123.386 170.903 123.529 171.196C123.679 171.489 123.884 171.72 124.145 171.889C124.405 172.058 124.743 172.143 125.16 172.143ZM135.537 159.135V174.145H132.725V159.135H135.537ZM142.197 163.578L137.607 168.813L135.146 171.303L134.121 169.272L136.074 166.791L138.818 163.578H142.197ZM139.277 174.145L136.152 169.262L138.096 167.563L142.52 174.145H139.277Z" fill="#261132"/>
<path fill-rule="evenodd" clip-rule="evenodd" d="M84.1304 49.8892L114.841 63.3628C117.007 64.3133 118.412 66.494 118.412 68.9069V100.591C118.412 112.279 112.898 123.247 103.608 130.04L84.0168 144.366C79.9195 147.362 74.4153 147.362 70.318 144.366L50.7271 130.04C41.4365 123.247 35.9228 112.279 35.9228 100.591V68.9069C35.9228 66.494 37.3274 64.3133 39.4938 63.3628L70.2044 49.8892C74.6508 47.9385 79.684 47.9385 84.1304 49.8892ZM102.027 96.1302C102.027 109.995 91.15 121.235 77.7324 121.235C64.3147 121.235 53.4376 109.995 53.4376 96.1302C53.4376 82.2651 64.3147 71.0251 77.7324 71.0251C91.15 71.0251 102.027 82.2651 102.027 96.1302ZM77.7323 79.6471C78.3422 79.6471 78.8366 80.158 78.8366 80.7882V88.1422V94.9891H87.1803C87.7902 94.9891 88.2846 95.5 88.2846 96.1302C88.2846 96.7604 87.7902 97.2713 87.1803 97.2713H78.0084C77.246 97.2713 76.628 96.6327 76.628 95.8449V80.7882C76.628 80.158 77.1224 79.6471 77.7323 79.6471Z" fill="#261132"/>
<path d="M114.841 63.3628L115.444 61.9892L114.841 63.3628ZM84.1304 49.8892L83.5278 51.2629L84.1304 49.8892ZM103.608 130.04L102.722 128.83L103.608 130.04ZM84.0168 144.366L84.9022 145.576L84.0168 144.366ZM70.318 144.366L71.2034 143.155H71.2034L70.318 144.366ZM50.7271 130.04L51.6124 128.83H51.6124L50.7271 130.04ZM39.4938 63.3628L40.0965 64.7365H40.0965L39.4938 63.3628ZM70.2044 49.8892L70.807 51.2629L70.2044 49.8892ZM78.8366 94.9891H77.3366V96.4891H78.8366V94.9891ZM115.444 61.9892L84.7331 48.5156L83.5278 51.2629L114.238 64.7365L115.444 61.9892ZM119.912 68.9069C119.912 65.9141 118.169 63.1851 115.444 61.9892L114.238 64.7365C115.845 65.4416 116.912 67.0739 116.912 68.9069H119.912ZM119.912 100.591V68.9069H116.912V100.591H119.912ZM104.493 131.251C114.177 124.17 119.912 112.748 119.912 100.591H116.912C116.912 111.809 111.62 122.324 102.722 128.83L104.493 131.251ZM84.9022 145.576L104.493 131.251L102.722 128.83L83.1314 143.155L84.9022 145.576ZM69.4326 145.576C74.0572 148.958 80.2776 148.958 84.9022 145.576L83.1314 143.155C79.5614 145.765 74.7734 145.765 71.2034 143.155L69.4326 145.576ZM49.8417 131.251L69.4326 145.576L71.2034 143.155L51.6124 128.83L49.8417 131.251ZM34.4228 100.591C34.4228 112.748 40.1578 124.17 49.8417 131.251L51.6124 128.83C42.7153 122.324 37.4228 111.809 37.4228 100.591H34.4228ZM34.4228 68.9069V100.591H37.4228V68.9069H34.4228ZM38.8912 61.9892C36.1655 63.1851 34.4228 65.9141 34.4228 68.9069H37.4228C37.4228 67.0739 38.4893 65.4416 40.0965 64.7365L38.8912 61.9892ZM69.6017 48.5156L38.8912 61.9892L40.0965 64.7365L70.807 51.2629L69.6017 48.5156ZM84.7331 48.5156C79.9025 46.3963 74.4323 46.3963 69.6017 48.5156L70.807 51.2629C74.8694 49.4806 79.4654 49.4806 83.5278 51.2629L84.7331 48.5156ZM77.7324 122.735C92.0245 122.735 103.527 110.777 103.527 96.1302H100.527C100.527 109.214 90.2756 119.735 77.7324 119.735V122.735ZM51.9376 96.1302C51.9376 110.777 63.4403 122.735 77.7324 122.735V119.735C65.1892 119.735 54.9376 109.214 54.9376 96.1302H51.9376ZM77.7324 69.5251C63.4403 69.5251 51.9376 81.4834 51.9376 96.1302H54.9376C54.9376 83.0467 65.1892 72.5251 77.7324 72.5251V69.5251ZM103.527 96.1302C103.527 81.4834 92.0245 69.5251 77.7324 69.5251V72.5251C90.2756 72.5251 100.527 83.0467 100.527 96.1302H103.527ZM80.3366 80.7882C80.3366 79.3763 79.2166 78.1471 77.7323 78.1471V81.1471C77.4678 81.1471 77.3366 80.9396 77.3366 80.7882H80.3366ZM80.3366 88.1422V80.7882H77.3366V88.1422H80.3366ZM80.3366 94.9891V88.1422H77.3366V94.9891H80.3366ZM87.1803 93.4891H78.8366V96.4891H87.1803V93.4891ZM89.7846 96.1302C89.7846 94.7183 88.6646 93.4891 87.1803 93.4891V96.4891C86.9157 96.4891 86.7846 96.2816 86.7846 96.1302H89.7846ZM87.1803 98.7713C88.6646 98.7713 89.7846 97.5421 89.7846 96.1302H86.7846C86.7846 95.9788 86.9157 95.7713 87.1803 95.7713V98.7713ZM78.0084 98.7713H87.1803V95.7713H78.0084V98.7713ZM75.128 95.8449C75.128 97.4144 76.3716 98.7713 78.0084 98.7713V95.7713C78.0293 95.7713 78.0519 95.7761 78.0718 95.7848C78.0905 95.793 78.1028 95.8027 78.1102 95.8104C78.1176 95.8181 78.122 95.8255 78.1247 95.8319C78.1261 95.8353 78.1269 95.8384 78.1275 95.841C78.128 95.8437 78.128 95.8451 78.128 95.8449H75.128ZM75.128 80.7882V95.8449H78.128V80.7882H75.128ZM77.7323 78.1471C76.248 78.1471 75.128 79.3763 75.128 80.7882H78.128C78.128 80.9396 77.9968 81.1471 77.7323 81.1471V78.1471ZM52.1974 64.4149C50.4968 56.9675 49.8352 45.8785 53.2211 36.7416C54.9037 32.2011 57.5662 28.1918 61.5528 25.3116C65.533 22.4361 70.9474 20.6033 78.2821 20.6033V17.6033C70.4287 17.6033 64.3714 19.5743 59.7959 22.8799C55.2268 26.1809 52.2495 30.7301 50.4081 35.6991C46.746 45.5812 47.499 57.3151 49.2727 65.0828L52.1974 64.4149ZM102.948 65.0583C104.583 57.3024 105.276 45.593 101.903 35.7349C100.209 30.7821 97.4647 26.2285 93.2305 22.9145C88.9818 19.5892 83.3488 17.6033 76.0527 17.6033V20.6033C82.7763 20.6033 87.7327 22.4212 91.3815 25.277C95.0449 28.1442 97.5062 32.1491 99.065 36.7059C102.199 45.8667 101.585 56.9801 100.013 64.4395L102.948 65.0583Z" fill="#261132"/>
<path fill-rule="evenodd" clip-rule="evenodd" d="M78.0761 14.7522C78.3195 14.7483 78.5644 14.7463 78.8108 14.7463H81.1391V14.9223C87.0539 15.4912 91.9561 17.4221 95.8912 20.4536C100.595 24.077 103.561 28.9972 105.351 34.1481C108.877 44.2939 108.119 56.0881 106.47 63.7892L105.979 66.0824L96.8748 64.1031L97.3659 61.8098C98.8119 55.0574 99.3141 45.1709 96.561 37.2495C95.2118 33.3674 93.1536 30.1571 90.2346 27.9084C87.4678 25.777 83.6003 24.2554 78.0716 24.1377C72.1334 24.2566 67.961 25.8085 64.9842 27.981C61.8649 30.2575 59.7004 33.4778 58.2889 37.3256C55.4016 45.1962 55.9256 55.0305 57.4463 61.7575L57.9633 64.0449L48.8826 66.129L48.3655 63.8415C46.6189 56.1151 45.8126 44.2687 49.5533 34.072C51.4555 28.8868 54.5943 23.9766 59.5211 20.381C63.6621 17.3589 68.8164 15.4482 75.0479 14.9057V14.7463H77.3763C77.611 14.7463 77.8442 14.7483 78.0761 14.7522Z" fill="#261132" stroke="#261132" stroke-width="0.1"/>
</g>
<defs>
<filter id="filter0_d_31_207" x="-4" y="0" width="163" height="193" filterUnits="userSpaceOnUse" color-interpolation-filters="sRGB">
<feFlood flood-opacity="0" result="BackgroundImageFix"/>
<feColorMatrix in="SourceAlpha" type="matrix" values="0 0 0 0 0 0 0 0 0 0 0 0 0 0 0 0 0 0 127 0" result="hardAlpha"/>
<feOffset dy="4"/>
<feGaussianBlur stdDeviation="2"/>
<feComposite in2="hardAlpha" operator="out"/>
<feColorMatrix type="matrix" values="0 0 0 0 0 0 0 0 0 0 0 0 0 0 0 0 0 0 0.25 0"/>
<feBlend mode="normal" in2="BackgroundImageFix" result="effect1_dropShadow_31_207"/>
<feBlend mode="normal" in="SourceGraphic" in2="effect1_dropShadow_31_207" result="shape"/>
</filter>
</defs>
</svg>
