<svg width="238" height="276" viewBox="0 0 238 276" fill="none" xmlns="http://www.w3.org/2000/svg">
<g filter="url(#filter0_d_13_418)">
<path d="M13.4883 254.266L18.5684 236.406H21.0293L19.6055 243.35L14.1387 262H11.6953L13.4883 254.266ZM8.23242 236.406L12.2754 253.914L13.4883 262H11.0625L4.85742 236.406H8.23242ZM27.6035 253.896L31.5586 236.406H34.9512L28.7637 262H26.3379L27.6035 253.896ZM21.3984 236.406L26.3379 254.266L28.1309 262H25.6875L20.4141 243.35L18.9727 236.406H21.3984ZM51.5379 258.748V248.957C51.5379 248.207 51.3855 247.557 51.0809 247.006C50.7879 246.443 50.3426 246.01 49.7449 245.705C49.1473 245.4 48.409 245.248 47.5301 245.248C46.7098 245.248 45.9891 245.389 45.368 245.67C44.7586 245.951 44.2781 246.32 43.9266 246.777C43.5867 247.234 43.4168 247.727 43.4168 248.254H40.1648C40.1648 247.574 40.3406 246.9 40.6922 246.232C41.0438 245.564 41.5477 244.961 42.2039 244.422C42.8719 243.871 43.6688 243.438 44.5945 243.121C45.532 242.793 46.575 242.629 47.7234 242.629C49.1063 242.629 50.325 242.863 51.3797 243.332C52.4461 243.801 53.2781 244.51 53.8758 245.459C54.4852 246.396 54.7898 247.574 54.7898 248.992V257.852C54.7898 258.484 54.8426 259.158 54.948 259.873C55.0652 260.588 55.2352 261.203 55.4578 261.719V262H52.0652C51.9012 261.625 51.7723 261.127 51.6785 260.506C51.5848 259.873 51.5379 259.287 51.5379 258.748ZM52.1004 250.469L52.1355 252.754H48.8484C47.9227 252.754 47.0965 252.83 46.3699 252.982C45.6434 253.123 45.034 253.34 44.5418 253.633C44.0496 253.926 43.6746 254.295 43.4168 254.74C43.159 255.174 43.0301 255.684 43.0301 256.27C43.0301 256.867 43.1648 257.412 43.4344 257.904C43.7039 258.396 44.1082 258.789 44.6473 259.082C45.198 259.363 45.8719 259.504 46.6688 259.504C47.6648 259.504 48.5438 259.293 49.3055 258.871C50.0672 258.449 50.6707 257.934 51.116 257.324C51.573 256.715 51.8191 256.123 51.8543 255.549L53.243 257.113C53.1609 257.605 52.9383 258.15 52.575 258.748C52.2117 259.346 51.7254 259.92 51.116 260.471C50.5184 261.01 49.8035 261.461 48.9715 261.824C48.1512 262.176 47.2254 262.352 46.1941 262.352C44.9051 262.352 43.7742 262.1 42.8016 261.596C41.8406 261.092 41.0906 260.418 40.5516 259.574C40.0242 258.719 39.7605 257.764 39.7605 256.709C39.7605 255.689 39.9598 254.793 40.3582 254.02C40.7566 253.234 41.3309 252.584 42.0809 252.068C42.8309 251.541 43.7332 251.143 44.7879 250.873C45.8426 250.604 47.0203 250.469 48.3211 250.469H52.1004ZM65.857 245.969V262H62.6051V242.98H65.7691L65.857 245.969ZM71.7984 242.875L71.7809 245.898C71.5113 245.84 71.2535 245.805 71.0074 245.793C70.773 245.77 70.5035 245.758 70.1988 245.758C69.4488 245.758 68.7867 245.875 68.2125 246.109C67.6383 246.344 67.152 246.672 66.7535 247.094C66.3551 247.516 66.0387 248.02 65.8043 248.605C65.5816 249.18 65.4352 249.812 65.3648 250.504L64.4508 251.031C64.4508 249.883 64.5621 248.805 64.7848 247.797C65.0191 246.789 65.3766 245.898 65.857 245.125C66.3375 244.34 66.9469 243.73 67.6852 243.297C68.4352 242.852 69.3258 242.629 70.357 242.629C70.5914 242.629 70.8609 242.658 71.1656 242.717C71.4703 242.764 71.6813 242.816 71.7984 242.875ZM80.7562 245.969V262H77.5043V242.98H80.6684L80.7562 245.969ZM86.6977 242.875L86.6801 245.898C86.4105 245.84 86.1527 245.805 85.9066 245.793C85.6723 245.77 85.4027 245.758 85.098 245.758C84.348 245.758 83.6859 245.875 83.1117 246.109C82.5375 246.344 82.0512 246.672 81.6527 247.094C81.2543 247.516 80.9379 248.02 80.7035 248.605C80.4809 249.18 80.3344 249.812 80.2641 250.504L79.35 251.031C79.35 249.883 79.4613 248.805 79.684 247.797C79.9184 246.789 80.2758 245.898 80.7562 245.125C81.2367 244.34 81.8461 243.73 82.5844 243.297C83.3344 242.852 84.225 242.629 85.2562 242.629C85.4906 242.629 85.7602 242.658 86.0648 242.717C86.3695 242.764 86.5805 242.816 86.6977 242.875ZM102.915 258.748V248.957C102.915 248.207 102.763 247.557 102.458 247.006C102.165 246.443 101.72 246.01 101.122 245.705C100.525 245.4 99.7863 245.248 98.9074 245.248C98.0871 245.248 97.3664 245.389 96.7453 245.67C96.1359 245.951 95.6555 246.32 95.3039 246.777C94.9641 247.234 94.7941 247.727 94.7941 248.254H91.5422C91.5422 247.574 91.718 246.9 92.0695 246.232C92.4211 245.564 92.925 244.961 93.5813 244.422C94.2492 243.871 95.0461 243.438 95.9719 243.121C96.9094 242.793 97.9523 242.629 99.1008 242.629C100.484 242.629 101.702 242.863 102.757 243.332C103.823 243.801 104.655 244.51 105.253 245.459C105.863 246.396 106.167 247.574 106.167 248.992V257.852C106.167 258.484 106.22 259.158 106.325 259.873C106.443 260.588 106.613 261.203 106.835 261.719V262H103.443C103.279 261.625 103.15 261.127 103.056 260.506C102.962 259.873 102.915 259.287 102.915 258.748ZM103.478 250.469L103.513 252.754H100.226C99.3 252.754 98.4738 252.83 97.7473 252.982C97.0207 253.123 96.4113 253.34 95.9191 253.633C95.427 253.926 95.052 254.295 94.7941 254.74C94.5363 255.174 94.4074 255.684 94.4074 256.27C94.4074 256.867 94.5422 257.412 94.8117 257.904C95.0813 258.396 95.4855 258.789 96.0246 259.082C96.5754 259.363 97.2492 259.504 98.0461 259.504C99.0422 259.504 99.9211 259.293 100.683 258.871C101.445 258.449 102.048 257.934 102.493 257.324C102.95 256.715 103.196 256.123 103.232 255.549L104.62 257.113C104.538 257.605 104.316 258.15 103.952 258.748C103.589 259.346 103.103 259.92 102.493 260.471C101.896 261.01 101.181 261.461 100.349 261.824C99.5285 262.176 98.6027 262.352 97.5715 262.352C96.2824 262.352 95.1516 262.1 94.1789 261.596C93.218 261.092 92.468 260.418 91.9289 259.574C91.4016 258.719 91.1379 257.764 91.1379 256.709C91.1379 255.689 91.3371 254.793 91.7355 254.02C92.134 253.234 92.7082 252.584 93.4582 252.068C94.2082 251.541 95.1105 251.143 96.1652 250.873C97.2199 250.604 98.3977 250.469 99.6984 250.469H103.478ZM117.234 247.041V262H113.982V242.98H117.059L117.234 247.041ZM116.461 251.77L115.107 251.717C115.119 250.416 115.312 249.215 115.688 248.113C116.062 247 116.59 246.033 117.27 245.213C117.949 244.393 118.758 243.76 119.695 243.314C120.645 242.857 121.693 242.629 122.842 242.629C123.779 242.629 124.623 242.758 125.373 243.016C126.123 243.262 126.762 243.66 127.289 244.211C127.828 244.762 128.238 245.477 128.52 246.355C128.801 247.223 128.941 248.283 128.941 249.537V262H125.672V249.502C125.672 248.506 125.525 247.709 125.232 247.111C124.939 246.502 124.512 246.062 123.949 245.793C123.387 245.512 122.695 245.371 121.875 245.371C121.066 245.371 120.328 245.541 119.66 245.881C119.004 246.221 118.436 246.689 117.955 247.287C117.486 247.885 117.117 248.57 116.848 249.344C116.59 250.105 116.461 250.914 116.461 251.77ZM146.53 236.406V262H143.19V236.406H146.53ZM154.757 236.406V239.184H134.981V236.406H154.757ZM162.677 245.969V262H159.425V242.98H162.589L162.677 245.969ZM168.619 242.875L168.601 245.898C168.332 245.84 168.074 245.805 167.828 245.793C167.593 245.77 167.324 245.758 167.019 245.758C166.269 245.758 165.607 245.875 165.033 246.109C164.459 246.344 163.972 246.672 163.574 247.094C163.175 247.516 162.859 248.02 162.625 248.605C162.402 249.18 162.255 249.812 162.185 250.504L161.271 251.031C161.271 249.883 161.382 248.805 161.605 247.797C161.839 246.789 162.197 245.898 162.677 245.125C163.158 244.34 163.767 243.73 164.505 243.297C165.255 242.852 166.146 242.629 167.177 242.629C167.412 242.629 167.681 242.658 167.986 242.717C168.291 242.764 168.502 242.816 168.619 242.875ZM184.836 258.748V248.957C184.836 248.207 184.684 247.557 184.379 247.006C184.086 246.443 183.641 246.01 183.043 245.705C182.446 245.4 181.707 245.248 180.829 245.248C180.008 245.248 179.288 245.389 178.666 245.67C178.057 245.951 177.577 246.32 177.225 246.777C176.885 247.234 176.715 247.727 176.715 248.254H173.463C173.463 247.574 173.639 246.9 173.991 246.232C174.342 245.564 174.846 244.961 175.502 244.422C176.17 243.871 176.967 243.438 177.893 243.121C178.83 242.793 179.873 242.629 181.022 242.629C182.405 242.629 183.623 242.863 184.678 243.332C185.745 243.801 186.577 244.51 187.174 245.459C187.784 246.396 188.088 247.574 188.088 248.992V257.852C188.088 258.484 188.141 259.158 188.246 259.873C188.364 260.588 188.534 261.203 188.756 261.719V262H185.364C185.2 261.625 185.071 261.127 184.977 260.506C184.883 259.873 184.836 259.287 184.836 258.748ZM185.399 250.469L185.434 252.754H182.147C181.221 252.754 180.395 252.83 179.668 252.982C178.942 253.123 178.332 253.34 177.84 253.633C177.348 253.926 176.973 254.295 176.715 254.74C176.457 255.174 176.329 255.684 176.329 256.27C176.329 256.867 176.463 257.412 176.733 257.904C177.002 258.396 177.407 258.789 177.946 259.082C178.496 259.363 179.17 259.504 179.967 259.504C180.963 259.504 181.842 259.293 182.604 258.871C183.366 258.449 183.969 257.934 184.414 257.324C184.871 256.715 185.118 256.123 185.153 255.549L186.541 257.113C186.459 257.605 186.237 258.15 185.873 258.748C185.51 259.346 185.024 259.92 184.414 260.471C183.817 261.01 183.102 261.461 182.27 261.824C181.45 262.176 180.524 262.352 179.493 262.352C178.204 262.352 177.073 262.1 176.1 261.596C175.139 261.092 174.389 260.418 173.85 259.574C173.323 258.719 173.059 257.764 173.059 256.709C173.059 255.689 173.258 254.793 173.657 254.02C174.055 253.234 174.629 252.584 175.379 252.068C176.129 251.541 177.032 251.143 178.086 250.873C179.141 250.604 180.319 250.469 181.62 250.469H185.399ZM203.515 259.68C204.288 259.68 205.003 259.521 205.659 259.205C206.316 258.889 206.855 258.455 207.277 257.904C207.698 257.342 207.939 256.703 207.997 255.988H211.091C211.032 257.113 210.652 258.162 209.948 259.135C209.257 260.096 208.349 260.875 207.224 261.473C206.099 262.059 204.863 262.352 203.515 262.352C202.085 262.352 200.837 262.1 199.771 261.596C198.716 261.092 197.837 260.4 197.134 259.521C196.443 258.643 195.921 257.635 195.57 256.498C195.23 255.35 195.06 254.137 195.06 252.859V252.121C195.06 250.844 195.23 249.637 195.57 248.5C195.921 247.352 196.443 246.338 197.134 245.459C197.837 244.58 198.716 243.889 199.771 243.385C200.837 242.881 202.085 242.629 203.515 242.629C205.003 242.629 206.304 242.934 207.417 243.543C208.53 244.141 209.404 244.961 210.036 246.004C210.681 247.035 211.032 248.207 211.091 249.52H207.997C207.939 248.734 207.716 248.025 207.329 247.393C206.954 246.76 206.439 246.256 205.782 245.881C205.138 245.494 204.382 245.301 203.515 245.301C202.519 245.301 201.681 245.5 201.001 245.898C200.333 246.285 199.8 246.812 199.402 247.48C199.015 248.137 198.734 248.869 198.558 249.678C198.394 250.475 198.312 251.289 198.312 252.121V252.859C198.312 253.691 198.394 254.512 198.558 255.32C198.722 256.129 198.997 256.861 199.384 257.518C199.782 258.174 200.316 258.701 200.984 259.1C201.663 259.486 202.507 259.68 203.515 259.68ZM220.717 235V262H217.447V235H220.717ZM232.336 242.98L224.039 251.857L219.398 256.674L219.135 253.211L222.457 249.238L228.363 242.98H232.336ZM229.365 262L222.58 252.93L224.268 250.029L233.197 262H229.365Z" fill="white"/>
<path d="M13.4883 254.266L12.5264 253.992L12.5197 254.016L12.5141 254.04L13.4883 254.266ZM18.5684 236.406V235.406H17.8131L17.6065 236.133L18.5684 236.406ZM21.0293 236.406L22.0089 236.607L22.2552 235.406H21.0293V236.406ZM19.6055 243.35L20.5651 243.631L20.5768 243.591L20.5851 243.55L19.6055 243.35ZM14.1387 262V263H14.8876L15.0983 262.281L14.1387 262ZM11.6953 262L10.7211 261.774L10.437 263H11.6953V262ZM8.23242 236.406L9.20678 236.181L9.02781 235.406H8.23242V236.406ZM12.2754 253.914L13.2643 253.766L13.2585 253.727L13.2497 253.689L12.2754 253.914ZM13.4883 262V263H14.6495L14.4772 261.852L13.4883 262ZM11.0625 262L10.0907 262.236L10.276 263H11.0625V262ZM4.85742 236.406V235.406H3.58601L3.88558 236.642L4.85742 236.406ZM27.6035 253.896L26.6281 253.676L26.6207 253.709L26.6155 253.742L27.6035 253.896ZM31.5586 236.406V235.406H30.7595L30.5832 236.186L31.5586 236.406ZM34.9512 236.406L35.9232 236.641L36.2217 235.406H34.9512V236.406ZM28.7637 262V263H29.5507L29.7357 262.235L28.7637 262ZM26.3379 262L25.3499 261.846L25.1696 263H26.3379V262ZM21.3984 236.406L22.3623 236.14L22.1594 235.406H21.3984V236.406ZM26.3379 254.266L27.3121 254.04L27.3073 254.019L27.3017 253.999L26.3379 254.266ZM28.1309 262V263H29.3892L29.105 261.774L28.1309 262ZM25.6875 262L24.7252 262.272L24.931 263H25.6875V262ZM20.4141 243.35L19.4349 243.553L19.4421 243.588L19.4518 243.622L20.4141 243.35ZM18.9727 236.406V235.406H17.7437L17.9935 236.61L18.9727 236.406ZM14.4501 254.539L19.5302 236.68L17.6065 236.133L12.5264 253.992L14.4501 254.539ZM18.5684 237.406H21.0293V235.406H18.5684V237.406ZM20.0497 236.205L18.6259 243.149L20.5851 243.55L22.0089 236.607L20.0497 236.205ZM18.6458 243.068L13.179 261.719L15.0983 262.281L20.5651 243.631L18.6458 243.068ZM14.1387 261H11.6953V263H14.1387V261ZM12.6695 262.226L14.4624 254.491L12.5141 254.04L10.7211 261.774L12.6695 262.226ZM7.25806 236.631L11.301 254.139L13.2497 253.689L9.20678 236.181L7.25806 236.631ZM11.2865 254.062L12.4993 262.148L14.4772 261.852L13.2643 253.766L11.2865 254.062ZM13.4883 261H11.0625V263H13.4883V261ZM12.0343 261.764L5.82927 236.171L3.88558 236.642L10.0907 262.236L12.0343 261.764ZM4.85742 237.406H8.23242V235.406H4.85742V237.406ZM28.5789 254.117L32.534 236.627L30.5832 236.186L26.6281 253.676L28.5789 254.117ZM31.5586 237.406H34.9512V235.406H31.5586V237.406ZM33.9792 236.171L27.7917 261.765L29.7357 262.235L35.9232 236.641L33.9792 236.171ZM28.7637 261H26.3379V263H28.7637V261ZM27.3259 262.154L28.5915 254.051L26.6155 253.742L25.3499 261.846L27.3259 262.154ZM20.4346 236.673L25.3741 254.532L27.3017 253.999L22.3623 236.14L20.4346 236.673ZM25.3637 254.491L27.1567 262.226L29.105 261.774L27.3121 254.04L25.3637 254.491ZM28.1309 261H25.6875V263H28.1309V261ZM26.6498 261.728L21.3763 243.078L19.4518 243.622L24.7252 262.272L26.6498 261.728ZM21.3932 243.146L19.9518 236.203L17.9935 236.61L19.4349 243.553L21.3932 243.146ZM18.9727 237.406H21.3984V235.406H18.9727V237.406ZM51.0809 247.006L50.1939 247.468L50.1997 247.479L50.2058 247.49L51.0809 247.006ZM45.368 245.67L44.9555 244.759L44.9489 244.762L45.368 245.67ZM43.9266 246.777L43.1339 246.168L43.129 246.174L43.1241 246.181L43.9266 246.777ZM43.4168 248.254V249.254H44.4168V248.254H43.4168ZM40.1648 248.254H39.1648V249.254H40.1648V248.254ZM42.2039 244.422L42.8386 245.195L42.8401 245.193L42.2039 244.422ZM44.5945 243.121L44.9179 244.067L44.9249 244.065L44.5945 243.121ZM51.3797 243.332L50.9735 244.246L50.9773 244.247L51.3797 243.332ZM53.8758 245.459L53.0295 245.992L53.0334 245.998L53.0373 246.004L53.8758 245.459ZM54.948 259.873L53.9588 260.019L53.9599 260.027L53.9612 260.035L54.948 259.873ZM55.4578 261.719H56.4578V261.512L56.3759 261.322L55.4578 261.719ZM55.4578 262V263H56.4578V262H55.4578ZM52.0652 262L51.1491 262.401L51.4112 263H52.0652V262ZM51.6785 260.506L50.6893 260.652L50.6897 260.655L51.6785 260.506ZM52.1004 250.469L53.1003 250.453L53.0851 249.469H52.1004V250.469ZM52.1355 252.754V253.754H53.1511L53.1354 252.739L52.1355 252.754ZM46.3699 252.982L46.5599 253.964L46.5676 253.963L46.5751 253.961L46.3699 252.982ZM43.4168 254.74L44.2764 255.251L44.2822 255.241L43.4168 254.74ZM44.6473 259.082L44.1698 259.961L44.181 259.967L44.1925 259.973L44.6473 259.082ZM51.116 257.324L50.316 256.724L50.3086 256.734L51.116 257.324ZM51.8543 255.549L52.6022 254.885L51.0033 253.084L50.8562 255.488L51.8543 255.549ZM53.243 257.113L54.2294 257.278L54.3079 256.807L53.9908 256.449L53.243 257.113ZM51.116 260.471L51.7858 261.213L51.7866 261.213L51.116 260.471ZM48.9715 261.824L49.3654 262.743L49.3716 262.741L48.9715 261.824ZM42.8016 261.596L42.3371 262.481L42.3416 262.484L42.8016 261.596ZM40.5516 259.574L39.7003 260.099L39.7045 260.106L39.7089 260.113L40.5516 259.574ZM40.3582 254.02L41.2472 254.477L41.25 254.472L40.3582 254.02ZM42.0809 252.068L42.6474 252.892L42.656 252.886L42.0809 252.068ZM52.5379 258.748V248.957H50.5379V258.748H52.5379ZM52.5379 248.957C52.5379 248.07 52.3569 247.247 51.9559 246.522L50.2058 247.49C50.4142 247.867 50.5379 248.344 50.5379 248.957H52.5379ZM51.9678 246.544C51.573 245.786 50.9708 245.208 50.1991 244.814L49.2907 246.596C49.7144 246.812 50.0028 247.101 50.1939 247.468L51.9678 246.544ZM50.1991 244.814C49.4241 244.419 48.5197 244.248 47.5301 244.248V246.248C48.2983 246.248 48.8705 246.382 49.2907 246.596L50.1991 244.814ZM47.5301 244.248C46.5959 244.248 45.7297 244.408 44.9555 244.759L45.7805 246.581C46.2484 246.369 46.8236 246.248 47.5301 246.248V244.248ZM44.9489 244.762C44.2169 245.1 43.5991 245.563 43.1339 246.168L44.7192 247.387C44.9571 247.078 45.3003 246.803 45.787 246.578L44.9489 244.762ZM43.1241 246.181C42.6669 246.796 42.4168 247.494 42.4168 248.254H44.4168C44.4168 247.959 44.5066 247.673 44.729 247.374L43.1241 246.181ZM43.4168 247.254H40.1648V249.254H43.4168V247.254ZM41.1648 248.254C41.1648 247.754 41.2926 247.239 41.5771 246.698L39.8073 245.767C39.3886 246.562 39.1648 247.395 39.1648 248.254H41.1648ZM41.5771 246.698C41.8593 246.162 42.2726 245.66 42.8386 245.195L41.5692 243.649C40.8228 244.262 40.2282 244.967 39.8073 245.767L41.5771 246.698ZM42.8401 245.193C43.4039 244.729 44.0914 244.35 44.9179 244.067L44.2711 242.175C43.2461 242.525 42.3399 243.014 41.5677 243.65L42.8401 245.193ZM44.9249 244.065C45.7411 243.779 46.6702 243.629 47.7234 243.629V241.629C46.4798 241.629 45.323 241.807 44.2642 242.177L44.9249 244.065ZM47.7234 243.629C48.9936 243.629 50.0695 243.844 50.9735 244.246L51.7858 242.418C50.5805 241.883 49.2189 241.629 47.7234 241.629V243.629ZM50.9773 244.247C51.8683 244.639 52.5426 245.218 53.0295 245.992L54.722 244.926C54.0137 243.801 53.0239 242.962 51.7821 242.417L50.9773 244.247ZM53.0373 246.004C53.5163 246.741 53.7898 247.716 53.7898 248.992H55.7898C55.7898 247.432 55.454 246.052 54.7142 244.914L53.0373 246.004ZM53.7898 248.992V257.852H55.7898V248.992H53.7898ZM53.7898 257.852C53.7898 258.54 53.8471 259.262 53.9588 260.019L55.9373 259.727C55.838 259.054 55.7898 258.429 55.7898 257.852H53.7898ZM53.9612 260.035C54.088 260.808 54.2769 261.506 54.5397 262.115L56.3759 261.322C56.1934 260.9 56.0424 260.367 55.9349 259.711L53.9612 260.035ZM54.4578 261.719V262H56.4578V261.719H54.4578ZM55.4578 261H52.0652V263H55.4578V261ZM52.9814 261.599C52.8659 261.335 52.7542 260.932 52.6673 260.357L50.6897 260.655C50.7904 261.322 50.9365 261.915 51.1491 262.401L52.9814 261.599ZM52.6677 260.359C52.5799 259.766 52.5379 259.23 52.5379 258.748H50.5379C50.5379 259.344 50.5897 259.98 50.6893 260.652L52.6677 260.359ZM51.1005 250.484L51.1357 252.769L53.1354 252.739L53.1003 250.453L51.1005 250.484ZM52.1355 251.754H48.8484V253.754H52.1355V251.754ZM48.8484 251.754C47.8698 251.754 46.9729 251.834 46.1647 252.004L46.5751 253.961C47.2201 253.826 47.9755 253.754 48.8484 253.754V251.754ZM46.1799 252.001C45.3713 252.157 44.646 252.407 44.0303 252.774L45.0533 254.492C45.422 254.273 45.9154 254.089 46.5599 253.964L46.1799 252.001ZM44.0303 252.774C43.4084 253.144 42.904 253.63 42.5514 254.239L44.2822 255.241C44.4452 254.96 44.6908 254.708 45.0533 254.492L44.0303 252.774ZM42.5573 254.229C42.1935 254.841 42.0301 255.533 42.0301 256.27H44.0301C44.0301 255.834 44.1244 255.507 44.2763 255.251L42.5573 254.229ZM42.0301 256.27C42.0301 257.024 42.2019 257.736 42.5573 258.385L44.3115 257.424C44.1278 257.089 44.0301 256.711 44.0301 256.27H42.0301ZM42.5573 258.385C42.9276 259.061 43.4784 259.585 44.1698 259.961L45.1248 258.203C44.738 257.993 44.4802 257.732 44.3115 257.424L42.5573 258.385ZM44.1925 259.973C44.9188 260.344 45.758 260.504 46.6688 260.504V258.504C45.9858 258.504 45.4773 258.383 45.102 258.191L44.1925 259.973ZM46.6688 260.504C47.8097 260.504 48.8598 260.261 49.79 259.746L48.821 257.996C48.2277 258.325 47.52 258.504 46.6688 258.504V260.504ZM49.79 259.746C50.6593 259.264 51.3802 258.658 51.9234 257.914L50.3086 256.734C49.9612 257.21 49.4751 257.634 48.821 257.996L49.79 259.746ZM51.916 257.924C52.453 257.208 52.802 256.433 52.8524 255.61L50.8562 255.488C50.8363 255.813 50.693 256.222 50.316 256.724L51.916 257.924ZM51.1064 256.213L52.4951 257.777L53.9908 256.449L52.6022 254.885L51.1064 256.213ZM52.2566 256.949C52.2021 257.276 52.0422 257.699 51.7205 258.229L53.4295 259.267C53.8343 258.601 54.1198 257.935 54.2294 257.278L52.2566 256.949ZM51.7205 258.229C51.4153 258.731 50.9953 259.232 50.4455 259.729L51.7866 261.213C52.4555 260.608 53.0081 259.961 53.4295 259.267L51.7205 258.229ZM50.4462 259.728C49.938 260.187 49.3172 260.582 48.5713 260.908L49.3716 262.741C50.2898 262.34 51.0987 261.833 51.7858 261.213L50.4462 259.728ZM48.5776 260.905C47.8996 261.196 47.1108 261.352 46.1941 261.352V263.352C47.3399 263.352 48.4028 263.156 49.3654 262.743L48.5776 260.905ZM46.1941 261.352C45.0369 261.352 44.0689 261.126 43.2616 260.708L42.3416 262.484C43.4795 263.073 44.7732 263.352 46.1941 263.352V261.352ZM43.266 260.71C42.4459 260.28 41.8318 259.721 41.3943 259.036L39.7089 260.113C40.3494 261.115 41.2353 261.904 42.3372 262.481L43.266 260.71ZM41.4028 259.049C40.9776 258.36 40.7605 257.588 40.7605 256.709H38.7605C38.7605 257.939 39.0708 259.078 39.7003 260.099L41.4028 259.049ZM40.7605 256.709C40.7605 255.821 40.9333 255.087 41.2472 254.477L39.4692 253.562C38.9863 254.499 38.7605 255.557 38.7605 256.709H40.7605ZM41.25 254.472C41.5701 253.841 42.0303 253.317 42.6474 252.892L41.5143 251.244C40.6314 251.851 39.9431 252.628 39.4665 253.567L41.25 254.472ZM42.656 252.886C43.2902 252.44 44.0767 252.087 45.0355 251.842L44.5403 249.904C43.3897 250.198 42.3715 250.642 41.5057 251.25L42.656 252.886ZM45.0355 251.842C45.9954 251.597 47.0882 251.469 48.3211 251.469V249.469C46.9525 249.469 45.6898 249.61 44.5403 249.904L45.0355 251.842ZM48.3211 251.469H52.1004V249.469H48.3211V251.469ZM65.857 245.969H66.857V245.954L66.8566 245.939L65.857 245.969ZM65.857 262V263H66.857V262H65.857ZM62.6051 262H61.6051V263H62.6051V262ZM62.6051 242.98V241.98H61.6051V242.98H62.6051ZM65.7691 242.98L66.7687 242.951L66.7402 241.98H65.7691V242.98ZM71.7984 242.875L72.7984 242.881L72.802 242.259L72.2457 241.981L71.7984 242.875ZM71.7809 245.898L71.5684 246.876L72.7737 247.138L72.7808 245.904L71.7809 245.898ZM71.0074 245.793L70.9079 246.788L70.9338 246.791L70.9599 246.792L71.0074 245.793ZM65.8043 248.605L64.8758 248.234L64.8719 248.244L65.8043 248.605ZM65.3648 250.504L65.8646 251.37L66.3079 251.114L66.3597 250.605L65.3648 250.504ZM64.4508 251.031H63.4508V252.763L64.9505 251.897L64.4508 251.031ZM64.7848 247.797L63.8107 247.57L63.8083 247.581L64.7848 247.797ZM65.857 245.125L66.7065 245.653L66.71 245.647L65.857 245.125ZM67.6852 243.297L68.1916 244.159L68.1957 244.157L67.6852 243.297ZM71.1656 242.717L70.9768 243.699L70.9951 243.702L71.0136 243.705L71.1656 242.717ZM64.857 245.969V262H66.857V245.969H64.857ZM65.857 261H62.6051V263H65.857V261ZM63.6051 262V242.98H61.6051V262H63.6051ZM62.6051 243.98H65.7691V241.98H62.6051V243.98ZM64.7696 243.01L64.8575 245.998L66.8566 245.939L66.7687 242.951L64.7696 243.01ZM70.7985 242.869L70.7809 245.893L72.7808 245.904L72.7984 242.881L70.7985 242.869ZM71.9933 244.921C71.6758 244.852 71.3627 244.809 71.055 244.794L70.9599 246.792C71.1444 246.801 71.3468 246.827 71.5684 246.876L71.9933 244.921ZM71.1069 244.798C70.8316 244.77 70.5277 244.758 70.1988 244.758V246.758C70.4794 246.758 70.7145 246.769 70.9079 246.788L71.1069 244.798ZM70.1988 244.758C69.3457 244.758 68.5511 244.891 67.8346 245.184L68.5904 247.035C69.0224 246.859 69.552 246.758 70.1988 246.758V244.758ZM67.8346 245.184C67.1375 245.468 66.5295 245.874 66.0265 246.407L67.4805 247.78C67.7744 247.469 68.139 247.219 68.5904 247.035L67.8346 245.184ZM66.0265 246.407C65.5344 246.928 65.1528 247.542 64.8758 248.234L66.7328 248.977C66.9245 248.497 67.1758 248.103 67.4805 247.78L66.0265 246.407ZM64.8719 248.244C64.613 248.912 64.4482 249.633 64.37 250.403L66.3597 250.605C66.4221 249.992 66.5503 249.448 66.7367 248.967L64.8719 248.244ZM64.8651 249.638L63.9511 250.165L64.9505 251.897L65.8646 251.37L64.8651 249.638ZM65.4508 251.031C65.4508 249.947 65.5559 248.942 65.7612 248.013L63.8083 247.581C63.5684 248.667 63.4508 249.818 63.4508 251.031H65.4508ZM65.7588 248.023C65.9717 247.108 66.291 246.322 66.7065 245.653L65.0076 244.597C64.4621 245.475 64.0666 246.47 63.8108 247.57L65.7588 248.023ZM66.71 245.647C67.1113 244.991 67.6056 244.503 68.1916 244.159L67.1787 242.435C66.2882 242.958 65.5637 243.688 65.0041 244.603L66.71 245.647ZM68.1957 244.157C68.7651 243.819 69.4724 243.629 70.357 243.629V241.629C69.1791 241.629 68.1052 241.884 67.1746 242.437L68.1957 244.157ZM70.357 243.629C70.5115 243.629 70.7157 243.649 70.9768 243.699L71.3545 241.735C71.0062 241.668 70.6713 241.629 70.357 241.629V243.629ZM71.0136 243.705C71.1469 243.726 71.2436 243.745 71.3098 243.762C71.3843 243.78 71.3865 243.787 71.3512 243.769L72.2457 241.981C71.9747 241.845 71.6239 241.776 71.3177 241.728L71.0136 243.705ZM80.7562 245.969H81.7562V245.954L81.7558 245.939L80.7562 245.969ZM80.7562 262V263H81.7562V262H80.7562ZM77.5043 262H76.5043V263H77.5043V262ZM77.5043 242.98V241.98H76.5043V242.98H77.5043ZM80.6684 242.98L81.6679 242.951L81.6394 241.98H80.6684V242.98ZM86.6977 242.875L87.6976 242.881L87.7013 242.259L87.1449 241.981L86.6977 242.875ZM86.6801 245.898L86.4676 246.876L87.6729 247.138L87.6801 245.904L86.6801 245.898ZM85.9066 245.793L85.8071 246.788L85.8331 246.791L85.8591 246.792L85.9066 245.793ZM80.7035 248.605L79.775 248.234L79.7712 248.244L80.7035 248.605ZM80.2641 250.504L80.7638 251.37L81.2071 251.114L81.2589 250.605L80.2641 250.504ZM79.35 251.031H78.35V252.763L79.8497 251.897L79.35 251.031ZM79.684 247.797L78.7099 247.57L78.7075 247.581L79.684 247.797ZM80.7562 245.125L81.6057 245.653L81.6092 245.647L80.7562 245.125ZM82.5844 243.297L83.0908 244.159L83.0949 244.157L82.5844 243.297ZM86.0648 242.717L85.876 243.699L85.8943 243.702L85.9128 243.705L86.0648 242.717ZM79.7562 245.969V262H81.7562V245.969H79.7562ZM80.7562 261H77.5043V263H80.7562V261ZM78.5043 262V242.98H76.5043V262H78.5043ZM77.5043 243.98H80.6684V241.98H77.5043V243.98ZM79.6688 243.01L79.7567 245.998L81.7558 245.939L81.6679 242.951L79.6688 243.01ZM85.6977 242.869L85.6801 245.893L87.6801 245.904L87.6976 242.881L85.6977 242.869ZM86.8925 244.921C86.575 244.852 86.2619 244.809 85.9542 244.794L85.8591 246.792C86.0436 246.801 86.246 246.827 86.4676 246.876L86.8925 244.921ZM86.0061 244.798C85.7308 244.77 85.4269 244.758 85.098 244.758V246.758C85.3786 246.758 85.6138 246.769 85.8071 246.788L86.0061 244.798ZM85.098 244.758C84.2449 244.758 83.4503 244.891 82.7338 245.184L83.4896 247.035C83.9216 246.859 84.4512 246.758 85.098 246.758V244.758ZM82.7338 245.184C82.0367 245.468 81.4288 245.874 80.9257 246.407L82.3797 247.78C82.6736 247.469 83.0383 247.219 83.4896 247.035L82.7338 245.184ZM80.9257 246.407C80.4336 246.928 80.052 247.542 79.775 248.234L81.632 248.977C81.8237 248.497 82.075 248.103 82.3797 247.78L80.9257 246.407ZM79.7712 248.244C79.5122 248.912 79.3474 249.633 79.2692 250.403L81.2589 250.605C81.3213 249.992 81.4495 249.448 81.6359 248.967L79.7712 248.244ZM79.7643 249.638L78.8503 250.165L79.8497 251.897L80.7638 251.37L79.7643 249.638ZM80.35 251.031C80.35 249.947 80.4551 248.942 80.6604 248.013L78.7075 247.581C78.4676 248.667 78.35 249.818 78.35 251.031H80.35ZM80.658 248.023C80.8709 247.108 81.1902 246.322 81.6057 245.653L79.9068 244.597C79.3614 245.475 78.9658 246.47 78.71 247.57L80.658 248.023ZM81.6092 245.647C82.0105 244.991 82.5048 244.503 83.0908 244.159L82.0779 242.435C81.1874 242.958 80.4629 243.688 79.9033 244.603L81.6092 245.647ZM83.0949 244.157C83.6643 243.819 84.3717 243.629 85.2562 243.629V241.629C84.0783 241.629 83.0044 241.884 82.0738 242.437L83.0949 244.157ZM85.2562 243.629C85.4107 243.629 85.6149 243.649 85.876 243.699L86.2537 241.735C85.9054 241.668 85.5705 241.629 85.2562 241.629V243.629ZM85.9128 243.705C86.0461 243.726 86.1429 243.745 86.209 243.762C86.2835 243.78 86.2857 243.787 86.2504 243.769L87.1449 241.981C86.8739 241.845 86.5231 241.776 86.2169 241.728L85.9128 243.705ZM102.458 247.006L101.571 247.468L101.577 247.479L101.583 247.49L102.458 247.006ZM96.7453 245.67L96.3328 244.759L96.3263 244.762L96.7453 245.67ZM95.3039 246.777L94.5113 246.168L94.5063 246.174L94.5014 246.181L95.3039 246.777ZM94.7941 248.254V249.254H95.7941V248.254H94.7941ZM91.5422 248.254H90.5422V249.254H91.5422V248.254ZM93.5813 244.422L94.216 245.195L94.2174 245.193L93.5813 244.422ZM95.9719 243.121L96.2953 244.067L96.3022 244.065L95.9719 243.121ZM102.757 243.332L102.351 244.246L102.355 244.247L102.757 243.332ZM105.253 245.459L104.407 245.992L104.411 245.998L104.415 246.004L105.253 245.459ZM106.325 259.873L105.336 260.019L105.337 260.027L105.339 260.035L106.325 259.873ZM106.835 261.719H107.835V261.512L107.753 261.322L106.835 261.719ZM106.835 262V263H107.835V262H106.835ZM103.443 262L102.526 262.401L102.789 263H103.443V262ZM103.056 260.506L102.067 260.652L102.067 260.655L103.056 260.506ZM103.478 250.469L104.478 250.453L104.462 249.469H103.478V250.469ZM103.513 252.754V253.754H104.528L104.513 252.739L103.513 252.754ZM97.7473 252.982L97.9373 253.964L97.9449 253.963L97.9525 253.961L97.7473 252.982ZM94.7941 254.74L95.6537 255.251L95.6596 255.241L94.7941 254.74ZM96.0246 259.082L95.5471 259.961L95.5584 259.967L95.5698 259.973L96.0246 259.082ZM102.493 257.324L101.693 256.724L101.686 256.734L102.493 257.324ZM103.232 255.549L103.98 254.885L102.381 253.084L102.234 255.488L103.232 255.549ZM104.62 257.113L105.607 257.278L105.685 256.807L105.368 256.449L104.62 257.113ZM102.493 260.471L103.163 261.213L103.164 261.213L102.493 260.471ZM100.349 261.824L100.743 262.743L100.749 262.741L100.349 261.824ZM94.1789 261.596L93.7145 262.481L93.7189 262.484L94.1789 261.596ZM91.9289 259.574L91.0777 260.099L91.0819 260.106L91.0862 260.113L91.9289 259.574ZM91.7355 254.02L92.6245 254.477L92.6273 254.472L91.7355 254.02ZM93.4582 252.068L94.0248 252.892L94.0334 252.886L93.4582 252.068ZM103.915 258.748V248.957H101.915V258.748H103.915ZM103.915 248.957C103.915 248.07 103.734 247.247 103.333 246.522L101.583 247.49C101.792 247.867 101.915 248.344 101.915 248.957H103.915ZM103.345 246.544C102.95 245.786 102.348 245.208 101.576 244.814L100.668 246.596C101.092 246.812 101.38 247.101 101.571 247.468L103.345 246.544ZM101.576 244.814C100.801 244.419 99.897 244.248 98.9074 244.248V246.248C99.6756 246.248 100.248 246.382 100.668 246.596L101.576 244.814ZM98.9074 244.248C97.9732 244.248 97.1071 244.408 96.3328 244.759L97.1578 246.581C97.6257 246.369 98.201 246.248 98.9074 246.248V244.248ZM96.3263 244.762C95.5942 245.1 94.9764 245.563 94.5113 246.168L96.0965 247.387C96.3345 247.078 96.6777 246.803 97.1644 246.578L96.3263 244.762ZM94.5014 246.181C94.0442 246.796 93.7941 247.494 93.7941 248.254H95.7941C95.7941 247.959 95.8839 247.673 96.1064 247.374L94.5014 246.181ZM94.7941 247.254H91.5422V249.254H94.7941V247.254ZM92.5422 248.254C92.5422 247.754 92.67 247.239 92.9545 246.698L91.1846 245.767C90.766 246.562 90.5422 247.395 90.5422 248.254H92.5422ZM92.9545 246.698C93.2366 246.162 93.6499 245.66 94.216 245.195L92.9465 243.649C92.2001 244.262 91.6056 244.967 91.1846 245.767L92.9545 246.698ZM94.2174 245.193C94.7812 244.729 95.4687 244.35 96.2953 244.067L95.6485 242.175C94.6235 242.525 93.7172 243.014 92.9451 243.65L94.2174 245.193ZM96.3022 244.065C97.1184 243.779 98.0476 243.629 99.1008 243.629V241.629C97.8571 241.629 96.7003 241.807 95.6415 242.177L96.3022 244.065ZM99.1008 243.629C100.371 243.629 101.447 243.844 102.351 244.246L103.163 242.418C101.958 241.883 100.596 241.629 99.1008 241.629V243.629ZM102.355 244.247C103.246 244.639 103.92 245.218 104.407 245.992L106.099 244.926C105.391 243.801 104.401 242.962 103.159 242.417L102.355 244.247ZM104.415 246.004C104.894 246.741 105.167 247.716 105.167 248.992H107.167C107.167 247.432 106.831 246.052 106.092 244.914L104.415 246.004ZM105.167 248.992V257.852H107.167V248.992H105.167ZM105.167 257.852C105.167 258.54 105.224 259.262 105.336 260.019L107.315 259.727C107.215 259.054 107.167 258.429 107.167 257.852H105.167ZM105.339 260.035C105.465 260.808 105.654 261.506 105.917 262.115L107.753 261.322C107.571 260.9 107.42 260.367 107.312 259.711L105.339 260.035ZM105.835 261.719V262H107.835V261.719H105.835ZM106.835 261H103.443V263H106.835V261ZM104.359 261.599C104.243 261.335 104.132 260.932 104.045 260.357L102.067 260.655C102.168 261.322 102.314 261.915 102.526 262.401L104.359 261.599ZM104.045 260.359C103.957 259.766 103.915 259.23 103.915 258.748H101.915C101.915 259.344 101.967 259.98 102.067 260.652L104.045 260.359ZM102.478 250.484L102.513 252.769L104.513 252.739L104.478 250.453L102.478 250.484ZM103.513 251.754H100.226V253.754H103.513V251.754ZM100.226 251.754C99.2472 251.754 98.3502 251.834 97.5421 252.004L97.9525 253.961C98.5974 253.826 99.3528 253.754 100.226 253.754V251.754ZM97.5572 252.001C96.7487 252.157 96.0233 252.407 95.4077 252.774L96.4306 254.492C96.7993 254.273 97.2927 254.089 97.9373 253.964L97.5572 252.001ZM95.4077 252.774C94.7858 253.144 94.2814 253.63 93.9287 254.239L95.6596 255.241C95.8225 254.96 96.0681 254.708 96.4306 254.492L95.4077 252.774ZM93.9346 254.229C93.5709 254.841 93.4074 255.533 93.4074 256.27H95.4074C95.4074 255.834 95.5018 255.507 95.6537 255.251L93.9346 254.229ZM93.4074 256.27C93.4074 257.024 93.5792 257.736 93.9346 258.385L95.6888 257.424C95.5052 257.089 95.4074 256.711 95.4074 256.27H93.4074ZM93.9346 258.385C94.3049 259.061 94.8557 259.585 95.5471 259.961L96.5021 258.203C96.1154 257.993 95.8576 257.732 95.6888 257.424L93.9346 258.385ZM95.5698 259.973C96.2961 260.344 97.1353 260.504 98.0461 260.504V258.504C97.3631 258.504 96.8547 258.383 96.4794 258.191L95.5698 259.973ZM98.0461 260.504C99.187 260.504 100.237 260.261 101.167 259.746L100.198 257.996C99.6051 258.325 98.8974 258.504 98.0461 258.504V260.504ZM101.167 259.746C102.037 259.264 102.758 258.658 103.301 257.914L101.686 256.734C101.339 257.21 100.852 257.634 100.198 257.996L101.167 259.746ZM103.293 257.924C103.83 257.208 104.179 256.433 104.23 255.61L102.234 255.488C102.214 255.813 102.07 256.222 101.693 256.724L103.293 257.924ZM102.484 256.213L103.872 257.777L105.368 256.449L103.98 254.885L102.484 256.213ZM103.634 256.949C103.579 257.276 103.42 257.699 103.098 258.229L104.807 259.267C105.212 258.601 105.497 257.935 105.607 257.278L103.634 256.949ZM103.098 258.229C102.793 258.731 102.373 259.232 101.823 259.729L103.164 261.213C103.833 260.608 104.385 259.961 104.807 259.267L103.098 258.229ZM101.824 259.728C101.315 260.187 100.695 260.582 99.9487 260.908L100.749 262.741C101.667 262.34 102.476 261.833 103.163 261.213L101.824 259.728ZM99.9549 260.905C99.2769 261.196 98.4882 261.352 97.5715 261.352V263.352C98.7173 263.352 99.7801 263.156 100.743 262.743L99.9549 260.905ZM97.5715 261.352C96.4143 261.352 95.4463 261.126 94.6389 260.708L93.7189 262.484C94.8568 263.073 96.1506 263.352 97.5715 263.352V261.352ZM94.6433 260.71C93.8233 260.28 93.2092 259.721 92.7716 259.036L91.0862 260.113C91.7268 261.115 92.6127 261.904 93.7145 262.481L94.6433 260.71ZM92.7802 259.049C92.355 258.36 92.1379 257.588 92.1379 256.709H90.1379C90.1379 257.939 90.4481 259.078 91.0777 260.099L92.7802 259.049ZM92.1379 256.709C92.1379 255.821 92.3106 255.087 92.6245 254.477L90.8466 253.562C90.3636 254.499 90.1379 255.557 90.1379 256.709H92.1379ZM92.6273 254.472C92.9475 253.841 93.4077 253.317 94.0247 252.892L92.8917 251.244C92.0088 251.851 91.3205 252.628 90.8438 253.567L92.6273 254.472ZM94.0334 252.886C94.6676 252.44 95.4541 252.087 96.4128 251.842L95.9176 249.904C94.767 250.198 93.7488 250.642 92.883 251.25L94.0334 252.886ZM96.4128 251.842C97.3727 251.597 98.4655 251.469 99.6984 251.469V249.469C98.3298 249.469 97.0671 249.61 95.9176 249.904L96.4128 251.842ZM99.6984 251.469H103.478V249.469H99.6984V251.469ZM117.234 247.041H118.234V247.019L118.233 246.998L117.234 247.041ZM117.234 262V263H118.234V262H117.234ZM113.982 262H112.982V263H113.982V262ZM113.982 242.98V241.98H112.982V242.98H113.982ZM117.059 242.98L118.058 242.937L118.016 241.98H117.059V242.98ZM116.461 251.77L116.422 252.769L117.461 252.809V251.77H116.461ZM115.107 251.717L114.107 251.708L114.099 252.678L115.068 252.716L115.107 251.717ZM115.688 248.113L116.634 248.436L116.635 248.433L115.688 248.113ZM119.695 243.314L120.124 244.218L120.129 244.215L119.695 243.314ZM125.373 243.016L125.048 243.961L125.061 243.966L125.373 243.016ZM127.289 244.211L126.567 244.903L126.574 244.91L127.289 244.211ZM128.52 246.355L127.567 246.66L127.568 246.664L128.52 246.355ZM128.941 262V263H129.941V262H128.941ZM125.672 262H124.672V263H125.672V262ZM125.232 247.111L124.331 247.545L124.335 247.551L125.232 247.111ZM123.949 245.793L123.502 246.687L123.51 246.691L123.517 246.695L123.949 245.793ZM119.66 245.881L119.207 244.99L119.2 244.993L119.66 245.881ZM117.955 247.287L117.176 246.661L117.168 246.67L117.955 247.287ZM116.848 249.344L115.903 249.015L115.9 249.023L116.848 249.344ZM116.234 247.041V262H118.234V247.041H116.234ZM117.234 261H113.982V263H117.234V261ZM114.982 262V242.98H112.982V262H114.982ZM113.982 243.98H117.059V241.98H113.982V243.98ZM116.06 243.024L116.235 247.084L118.233 246.998L118.058 242.937L116.06 243.024ZM116.5 250.77L115.146 250.718L115.068 252.716L116.422 252.769L116.5 250.77ZM116.107 251.726C116.118 250.519 116.297 249.425 116.634 248.436L114.741 247.791C114.328 249.005 114.12 250.313 114.107 251.708L116.107 251.726ZM116.635 248.433C116.975 247.424 117.446 246.568 118.04 245.851L116.5 244.575C115.734 245.499 115.15 246.576 114.74 247.794L116.635 248.433ZM118.04 245.851C118.629 245.14 119.322 244.599 120.124 244.218L119.266 242.411C118.194 242.921 117.27 243.645 116.5 244.575L118.04 245.851ZM120.129 244.215C120.931 243.829 121.83 243.629 122.842 243.629V241.629C121.557 241.629 120.358 241.886 119.261 242.413L120.129 244.215ZM122.842 243.629C123.688 243.629 124.42 243.745 125.048 243.961L125.698 242.07C124.826 241.77 123.87 241.629 122.842 241.629V243.629ZM125.061 243.966C125.661 244.163 126.157 244.475 126.567 244.903L128.011 243.519C127.366 242.846 126.585 242.361 125.685 242.065L125.061 243.966ZM126.574 244.91C126.985 245.33 127.324 245.901 127.567 246.66L129.472 246.051C129.153 245.053 128.671 244.193 128.004 243.511L126.574 244.91ZM127.568 246.664C127.808 247.402 127.941 248.352 127.941 249.537H129.941C129.941 248.215 129.794 247.043 129.471 246.047L127.568 246.664ZM127.941 249.537V262H129.941V249.537H127.941ZM128.941 261H125.672V263H128.941V261ZM126.672 262V249.502H124.672V262H126.672ZM126.672 249.502C126.672 248.423 126.515 247.457 126.13 246.671L124.335 247.551C124.535 247.961 124.672 248.589 124.672 249.502H126.672ZM126.134 246.678C125.751 245.882 125.167 245.267 124.381 244.891L123.517 246.695C123.857 246.858 124.128 247.122 124.331 247.545L126.134 246.678ZM124.396 244.899C123.659 244.53 122.805 244.371 121.875 244.371V246.371C122.586 246.371 123.114 246.493 123.502 246.687L124.396 244.899ZM121.875 244.371C120.922 244.371 120.026 244.573 119.207 244.99L120.114 246.772C120.63 246.509 121.211 246.371 121.875 246.371V244.371ZM119.2 244.993C118.416 245.399 117.74 245.959 117.176 246.661L118.734 247.914C119.131 247.42 119.592 247.042 120.12 246.769L119.2 244.993ZM117.168 246.67C116.626 247.361 116.206 248.145 115.903 249.015L117.792 249.673C118.028 248.995 118.346 248.409 118.742 247.904L117.168 246.67ZM115.9 249.023C115.605 249.895 115.461 250.812 115.461 251.77H117.461C117.461 251.016 117.574 250.316 117.795 249.664L115.9 249.023ZM146.53 236.406H147.53V235.406H146.53V236.406ZM146.53 262V263H147.53V262H146.53ZM143.19 262H142.19V263H143.19V262ZM143.19 236.406V235.406H142.19V236.406H143.19ZM154.757 236.406H155.757V235.406H154.757V236.406ZM154.757 239.184V240.184H155.757V239.184H154.757ZM134.981 239.184H133.981V240.184H134.981V239.184ZM134.981 236.406V235.406H133.981V236.406H134.981ZM145.53 236.406V262H147.53V236.406H145.53ZM146.53 261H143.19V263H146.53V261ZM144.19 262V236.406H142.19V262H144.19ZM143.19 237.406H146.53V235.406H143.19V237.406ZM153.757 236.406V239.184H155.757V236.406H153.757ZM154.757 238.184H134.981V240.184H154.757V238.184ZM135.981 239.184V236.406H133.981V239.184H135.981ZM134.981 237.406H154.757V235.406H134.981V237.406ZM162.677 245.969H163.677V245.954L163.677 245.939L162.677 245.969ZM162.677 262V263H163.677V262H162.677ZM159.425 262H158.425V263H159.425V262ZM159.425 242.98V241.98H158.425V242.98H159.425ZM162.589 242.98L163.589 242.951L163.56 241.98H162.589V242.98ZM168.619 242.875L169.619 242.881L169.622 242.259L169.066 241.981L168.619 242.875ZM168.601 245.898L168.389 246.876L169.594 247.138L169.601 245.904L168.601 245.898ZM167.828 245.793L167.728 246.788L167.754 246.791L167.78 246.792L167.828 245.793ZM162.625 248.605L161.696 248.234L161.692 248.244L162.625 248.605ZM162.185 250.504L162.685 251.37L163.128 251.114L163.18 250.605L162.185 250.504ZM161.271 251.031H160.271V252.763L161.771 251.897L161.271 251.031ZM161.605 247.797L160.631 247.57L160.629 247.581L161.605 247.797ZM162.677 245.125L163.527 245.653L163.53 245.647L162.677 245.125ZM164.505 243.297L165.012 244.159L165.016 244.157L164.505 243.297ZM167.986 242.717L167.797 243.699L167.815 243.702L167.834 243.705L167.986 242.717ZM161.677 245.969V262H163.677V245.969H161.677ZM162.677 261H159.425V263H162.677V261ZM160.425 262V242.98H158.425V262H160.425ZM159.425 243.98H162.589V241.98H159.425V243.98ZM161.59 243.01L161.678 245.998L163.677 245.939L163.589 242.951L161.59 243.01ZM167.619 242.869L167.601 245.893L169.601 245.904L169.619 242.881L167.619 242.869ZM168.814 244.921C168.496 244.852 168.183 244.809 167.875 244.794L167.78 246.792C167.965 246.801 168.167 246.827 168.389 246.876L168.814 244.921ZM167.927 244.798C167.652 244.77 167.348 244.758 167.019 244.758V246.758C167.3 246.758 167.535 246.769 167.728 246.788L167.927 244.798ZM167.019 244.758C166.166 244.758 165.371 244.891 164.655 245.184L165.411 247.035C165.843 246.859 166.372 246.758 167.019 246.758V244.758ZM164.655 245.184C163.958 245.468 163.35 245.874 162.847 246.407L164.301 247.78C164.595 247.469 164.959 247.219 165.411 247.035L164.655 245.184ZM162.847 246.407C162.355 246.928 161.973 247.542 161.696 248.234L163.553 248.977C163.745 248.497 163.996 248.103 164.301 247.78L162.847 246.407ZM161.692 248.244C161.433 248.912 161.269 249.633 161.19 250.403L163.18 250.605C163.242 249.992 163.371 249.448 163.557 248.967L161.692 248.244ZM161.685 249.638L160.771 250.165L161.771 251.897L162.685 251.37L161.685 249.638ZM162.271 251.031C162.271 249.947 162.376 248.942 162.582 248.013L160.629 247.581C160.389 248.667 160.271 249.818 160.271 251.031H162.271ZM162.579 248.023C162.792 247.108 163.111 246.322 163.527 245.653L161.828 244.597C161.282 245.475 160.887 246.47 160.631 247.57L162.579 248.023ZM163.53 245.647C163.932 244.991 164.426 244.503 165.012 244.159L163.999 242.435C163.108 242.958 162.384 243.688 161.824 244.603L163.53 245.647ZM165.016 244.157C165.585 243.819 166.293 243.629 167.177 243.629V241.629C165.999 241.629 164.926 241.884 163.995 242.437L165.016 244.157ZM167.177 243.629C167.332 243.629 167.536 243.649 167.797 243.699L168.175 241.735C167.827 241.668 167.492 241.629 167.177 241.629V243.629ZM167.834 243.705C167.967 243.726 168.064 243.745 168.13 243.762C168.205 243.78 168.207 243.787 168.172 243.769L169.066 241.981C168.795 241.845 168.444 241.776 168.138 241.728L167.834 243.705ZM184.379 247.006L183.492 247.468L183.498 247.479L183.504 247.49L184.379 247.006ZM178.666 245.67L178.254 244.759L178.247 244.762L178.666 245.67ZM177.225 246.777L176.432 246.168L176.427 246.174L176.423 246.181L177.225 246.777ZM176.715 248.254V249.254H177.715V248.254H176.715ZM173.463 248.254H172.463V249.254H173.463V248.254ZM175.502 244.422L176.137 245.195L176.139 245.193L175.502 244.422ZM177.893 243.121L178.216 244.067L178.223 244.065L177.893 243.121ZM184.678 243.332L184.272 244.246L184.276 244.247L184.678 243.332ZM187.174 245.459L186.328 245.992L186.332 245.998L186.336 246.004L187.174 245.459ZM188.246 259.873L187.257 260.019L187.258 260.027L187.26 260.035L188.246 259.873ZM188.756 261.719H189.756V261.512L189.674 261.322L188.756 261.719ZM188.756 262V263H189.756V262H188.756ZM185.364 262L184.448 262.401L184.71 263H185.364V262ZM184.977 260.506L183.988 260.652L183.988 260.655L184.977 260.506ZM185.399 250.469L186.399 250.453L186.384 249.469H185.399V250.469ZM185.434 252.754V253.754H186.449L186.434 252.739L185.434 252.754ZM179.668 252.982L179.858 253.964L179.866 253.963L179.874 253.961L179.668 252.982ZM176.715 254.74L177.575 255.251L177.581 255.241L176.715 254.74ZM177.946 259.082L177.468 259.961L177.479 259.967L177.491 259.973L177.946 259.082ZM184.414 257.324L183.614 256.724L183.607 256.734L184.414 257.324ZM185.153 255.549L185.901 254.885L184.302 253.084L184.155 255.488L185.153 255.549ZM186.541 257.113L187.528 257.278L187.606 256.807L187.289 256.449L186.541 257.113ZM184.414 260.471L185.084 261.213L185.085 261.213L184.414 260.471ZM182.27 261.824L182.664 262.743L182.67 262.741L182.27 261.824ZM176.1 261.596L175.636 262.481L175.64 262.484L176.1 261.596ZM173.85 259.574L172.999 260.099L173.003 260.106L173.007 260.113L173.85 259.574ZM173.657 254.02L174.546 254.477L174.548 254.472L173.657 254.02ZM175.379 252.068L175.946 252.892L175.954 252.886L175.379 252.068ZM185.836 258.748V248.957H183.836V258.748H185.836ZM185.836 248.957C185.836 248.07 185.655 247.247 185.254 246.522L183.504 247.49C183.713 247.867 183.836 248.344 183.836 248.957H185.836ZM185.266 246.544C184.871 245.786 184.269 245.208 183.498 244.814L182.589 246.596C183.013 246.812 183.301 247.101 183.492 247.468L185.266 246.544ZM183.498 244.814C182.723 244.419 181.818 244.248 180.829 244.248V246.248C181.597 246.248 182.169 246.382 182.589 246.596L183.498 244.814ZM180.829 244.248C179.894 244.248 179.028 244.408 178.254 244.759L179.079 246.581C179.547 246.369 180.122 246.248 180.829 246.248V244.248ZM178.247 244.762C177.515 245.1 176.898 245.563 176.432 246.168L178.018 247.387C178.256 247.078 178.599 246.803 179.085 246.578L178.247 244.762ZM176.423 246.181C175.965 246.796 175.715 247.494 175.715 248.254H177.715C177.715 247.959 177.805 247.673 178.027 247.374L176.423 246.181ZM176.715 247.254H173.463V249.254H176.715V247.254ZM174.463 248.254C174.463 247.754 174.591 247.239 174.876 246.698L173.106 245.767C172.687 246.562 172.463 247.395 172.463 248.254H174.463ZM174.876 246.698C175.158 246.162 175.571 245.66 176.137 245.195L174.868 243.649C174.121 244.262 173.527 244.967 173.106 245.767L174.876 246.698ZM176.139 245.193C176.702 244.729 177.39 244.35 178.216 244.067L177.57 242.175C176.545 242.525 175.638 243.014 174.866 243.65L176.139 245.193ZM178.223 244.065C179.04 243.779 179.969 243.629 181.022 243.629V241.629C179.778 241.629 178.621 241.807 177.563 242.177L178.223 244.065ZM181.022 243.629C182.292 243.629 183.368 243.844 184.272 244.246L185.084 242.418C183.879 241.883 182.517 241.629 181.022 241.629V243.629ZM184.276 244.247C185.167 244.639 185.841 245.218 186.328 245.992L188.02 244.926C187.312 243.801 186.322 242.962 185.081 242.417L184.276 244.247ZM186.336 246.004C186.815 246.741 187.088 247.716 187.088 248.992H189.088C189.088 247.432 188.752 246.052 188.013 244.914L186.336 246.004ZM187.088 248.992V257.852H189.088V248.992H187.088ZM187.088 257.852C187.088 258.54 187.146 259.262 187.257 260.019L189.236 259.727C189.136 259.054 189.088 258.429 189.088 257.852H187.088ZM187.26 260.035C187.386 260.808 187.575 261.506 187.838 262.115L189.674 261.322C189.492 260.9 189.341 260.367 189.233 259.711L187.26 260.035ZM187.756 261.719V262H189.756V261.719H187.756ZM188.756 261H185.364V263H188.756V261ZM186.28 261.599C186.164 261.335 186.053 260.932 185.966 260.357L183.988 260.655C184.089 261.322 184.235 261.915 184.448 262.401L186.28 261.599ZM185.966 260.359C185.878 259.766 185.836 259.23 185.836 258.748H183.836C183.836 259.344 183.888 259.98 183.988 260.652L185.966 260.359ZM184.399 250.484L184.434 252.769L186.434 252.739L186.399 250.453L184.399 250.484ZM185.434 251.754H182.147V253.754H185.434V251.754ZM182.147 251.754C181.168 251.754 180.271 251.834 179.463 252.004L179.874 253.961C180.519 253.826 181.274 253.754 182.147 253.754V251.754ZM179.478 252.001C178.67 252.157 177.944 252.407 177.329 252.774L178.352 254.492C178.72 254.273 179.214 254.089 179.858 253.964L179.478 252.001ZM177.329 252.774C176.707 253.144 176.202 253.63 175.85 254.239L177.581 255.241C177.744 254.96 177.989 254.708 178.352 254.492L177.329 252.774ZM175.856 254.229C175.492 254.841 175.329 255.533 175.329 256.27H177.329C177.329 255.834 177.423 255.507 177.575 255.251L175.856 254.229ZM175.329 256.27C175.329 257.024 175.5 257.736 175.856 258.385L177.61 257.424C177.426 257.089 177.329 256.711 177.329 256.27H175.329ZM175.856 258.385C176.226 259.061 176.777 259.585 177.468 259.961L178.423 258.203C178.036 257.993 177.779 257.732 177.61 257.424L175.856 258.385ZM177.491 259.973C178.217 260.344 179.056 260.504 179.967 260.504V258.504C179.284 258.504 178.776 258.383 178.4 258.191L177.491 259.973ZM179.967 260.504C181.108 260.504 182.158 260.261 183.088 259.746L182.119 257.996C181.526 258.325 180.818 258.504 179.967 258.504V260.504ZM183.088 259.746C183.958 259.264 184.679 258.658 185.222 257.914L183.607 256.734C183.26 257.21 182.774 257.634 182.119 257.996L183.088 259.746ZM185.214 257.924C185.751 257.208 186.1 256.433 186.151 255.61L184.155 255.488C184.135 255.813 183.991 256.222 183.614 256.724L185.214 257.924ZM184.405 256.213L185.794 257.777L187.289 256.449L185.901 254.885L184.405 256.213ZM185.555 256.949C185.501 257.276 185.341 257.699 185.019 258.229L186.728 259.267C187.133 258.601 187.418 257.935 187.528 257.278L185.555 256.949ZM185.019 258.229C184.714 258.731 184.294 259.232 183.744 259.729L185.085 261.213C185.754 260.608 186.307 259.961 186.728 259.267L185.019 258.229ZM183.745 259.728C183.236 260.187 182.616 260.582 181.87 260.908L182.67 262.741C183.588 262.34 184.397 261.833 185.084 261.213L183.745 259.728ZM181.876 260.905C181.198 261.196 180.409 261.352 179.493 261.352V263.352C180.638 263.352 181.701 263.156 182.664 262.743L181.876 260.905ZM179.493 261.352C178.335 261.352 177.367 261.126 176.56 260.708L175.64 262.484C176.778 263.073 178.072 263.352 179.493 263.352V261.352ZM176.564 260.71C175.744 260.28 175.13 259.721 174.693 259.036L173.007 260.113C173.648 261.115 174.534 261.904 175.636 262.481L176.564 260.71ZM174.701 259.049C174.276 258.36 174.059 257.588 174.059 256.709H172.059C172.059 257.939 172.369 259.078 172.999 260.099L174.701 259.049ZM174.059 256.709C174.059 255.821 174.232 255.087 174.546 254.477L172.768 253.562C172.285 254.499 172.059 255.557 172.059 256.709H174.059ZM174.548 254.472C174.869 253.841 175.329 253.317 175.946 252.892L174.813 251.244C173.93 251.851 173.242 252.628 172.765 253.567L174.548 254.472ZM175.954 252.886C176.589 252.44 177.375 252.087 178.334 251.842L177.839 249.904C176.688 250.198 175.67 250.642 174.804 251.25L175.954 252.886ZM178.334 251.842C179.294 251.597 180.387 251.469 181.62 251.469V249.469C180.251 249.469 178.988 249.61 177.839 249.904L178.334 251.842ZM181.62 251.469H185.399V249.469H181.62V251.469ZM207.277 257.904L208.07 258.512L208.077 258.504L207.277 257.904ZM207.997 255.988V254.988H207.076L207.001 255.907L207.997 255.988ZM211.091 255.988L212.09 256.04L212.144 254.988H211.091V255.988ZM209.948 259.135L209.138 258.549L209.137 258.551L209.948 259.135ZM207.224 261.473L207.686 262.36L207.693 262.356L207.224 261.473ZM199.771 261.596L199.34 262.498L199.343 262.5L199.771 261.596ZM197.134 259.521L196.348 260.14L196.353 260.146L197.134 259.521ZM195.57 256.498L194.611 256.782L194.614 256.794L195.57 256.498ZM195.57 248.5L194.613 248.207L194.611 248.214L195.57 248.5ZM197.134 245.459L196.353 244.834L196.348 244.841L197.134 245.459ZM199.771 243.385L199.343 242.481L199.34 242.482L199.771 243.385ZM207.417 243.543L206.937 244.42L206.944 244.424L207.417 243.543ZM210.036 246.004L209.181 246.523L209.188 246.534L210.036 246.004ZM211.091 249.52V250.52H212.137L212.09 249.475L211.091 249.52ZM207.997 249.52L207 249.594L207.069 250.52H207.997V249.52ZM207.329 247.393L206.469 247.902L206.476 247.914L207.329 247.393ZM205.782 245.881L205.268 246.738L205.277 246.744L205.286 246.749L205.782 245.881ZM201.001 245.898L201.502 246.764L201.507 246.761L201.001 245.898ZM199.402 247.48L198.543 246.968L198.54 246.973L199.402 247.48ZM198.558 249.678L197.581 249.465L197.578 249.476L198.558 249.678ZM199.384 257.518L198.522 258.025L198.529 258.037L199.384 257.518ZM200.984 259.1L200.471 259.958L200.48 259.964L200.489 259.969L200.984 259.1ZM203.515 260.68C204.429 260.68 205.294 260.492 206.094 260.106L205.225 258.304C204.713 258.551 204.147 258.68 203.515 258.68V260.68ZM206.094 260.106C206.884 259.725 207.548 259.194 208.07 258.512L206.483 257.296C206.161 257.716 205.747 258.052 205.225 258.304L206.094 260.106ZM208.077 258.504C208.614 257.788 208.92 256.969 208.994 256.07L207.001 255.907C206.957 256.438 206.783 256.896 206.477 257.304L208.077 258.504ZM207.997 256.988H211.091V254.988H207.997V256.988ZM210.092 255.936C210.044 256.856 209.736 257.722 209.138 258.549L210.759 259.721C211.567 258.603 212.02 257.37 212.09 256.04L210.092 255.936ZM209.137 258.551C208.542 259.378 207.755 260.058 206.755 260.59L207.693 262.356C208.943 261.692 209.972 260.814 210.76 259.719L209.137 258.551ZM206.762 260.586C205.788 261.093 204.712 261.352 203.515 261.352V263.352C205.013 263.352 206.409 263.024 207.686 262.36L206.762 260.586ZM203.515 261.352C202.202 261.352 201.105 261.12 200.198 260.692L199.343 262.5C200.569 263.079 201.968 263.352 203.515 263.352V261.352ZM200.202 260.693C199.278 260.252 198.52 259.653 197.915 258.897L196.353 260.146C197.154 261.147 198.154 261.932 199.34 262.498L200.202 260.693ZM197.92 258.903C197.309 258.127 196.843 257.23 196.525 256.203L194.614 256.794C195 258.04 195.576 259.159 196.348 260.14L197.92 258.903ZM196.528 256.214C196.218 255.164 196.06 254.047 196.06 252.859H194.06C194.06 254.226 194.242 255.535 194.611 256.782L196.528 256.214ZM196.06 252.859V252.121H194.06V252.859H196.06ZM196.06 252.121C196.06 250.933 196.218 249.823 196.528 248.786L194.611 248.214C194.242 249.45 194.06 250.754 194.06 252.121H196.06ZM196.526 248.793C196.844 247.754 197.31 246.852 197.92 246.077L196.348 244.841C195.575 245.824 194.998 246.95 194.613 248.207L196.526 248.793ZM197.915 246.084C198.52 245.327 199.278 244.729 200.202 244.287L199.34 242.482C198.154 243.049 197.154 243.833 196.353 244.834L197.915 246.084ZM200.198 244.289C201.105 243.86 202.202 243.629 203.515 243.629V241.629C201.968 241.629 200.569 241.902 199.343 242.481L200.198 244.289ZM203.515 243.629C204.864 243.629 205.995 243.904 206.937 244.42L207.897 242.666C206.613 241.963 205.142 241.629 203.515 241.629V243.629ZM206.944 244.424C207.906 244.94 208.645 245.638 209.181 246.523L210.891 245.485C210.162 244.284 209.155 243.341 207.89 242.662L206.944 244.424ZM209.188 246.534C209.734 247.407 210.04 248.409 210.092 249.564L212.09 249.475C212.024 248.005 211.627 246.663 210.884 245.474L209.188 246.534ZM211.091 248.52H207.997V250.52H211.091V248.52ZM208.994 249.445C208.925 248.512 208.657 247.648 208.183 246.871L206.476 247.914C206.775 248.403 206.953 248.957 207 249.594L208.994 249.445ZM208.19 246.883C207.724 246.097 207.081 245.471 206.279 245.013L205.286 246.749C205.796 247.041 206.185 247.423 206.469 247.902L208.19 246.883ZM206.297 245.023C205.474 244.53 204.535 244.301 203.515 244.301V246.301C204.229 246.301 204.801 246.458 205.268 246.738L206.297 245.023ZM203.515 244.301C202.387 244.301 201.364 244.527 200.495 245.036L201.507 246.761C201.998 246.473 202.65 246.301 203.515 246.301V244.301ZM200.5 245.033C199.684 245.506 199.028 246.155 198.543 246.968L200.26 247.993C200.572 247.47 200.983 247.065 201.502 246.764L200.5 245.033ZM198.54 246.973C198.095 247.728 197.777 248.562 197.581 249.465L199.535 249.89C199.69 249.177 199.935 248.545 200.263 247.988L198.54 246.973ZM197.578 249.476C197.4 250.341 197.312 251.223 197.312 252.121H199.312C199.312 251.355 199.387 250.608 199.537 249.879L197.578 249.476ZM197.312 252.121V252.859H199.312V252.121H197.312ZM197.312 252.859C197.312 253.758 197.4 254.645 197.578 255.519L199.538 255.121C199.387 254.379 199.312 253.625 199.312 252.859H197.312ZM197.578 255.519C197.762 256.428 198.075 257.266 198.522 258.025L200.246 257.01C199.92 256.457 199.682 255.83 199.538 255.121L197.578 255.519ZM198.529 258.037C199.014 258.834 199.665 259.478 200.471 259.958L201.496 258.241C200.966 257.925 200.551 257.513 200.239 256.999L198.529 258.037ZM200.489 259.969C201.357 260.463 202.383 260.68 203.515 260.68V258.68C202.632 258.68 201.97 258.51 201.478 258.23L200.489 259.969ZM220.717 235H221.717V234H220.717V235ZM220.717 262V263H221.717V262H220.717ZM217.447 262H216.447V263H217.447V262ZM217.447 235V234H216.447V235H217.447ZM232.336 242.98L233.067 243.663L234.639 241.98H232.336V242.98ZM224.039 251.857L224.759 252.551L224.764 252.546L224.77 252.54L224.039 251.857ZM219.398 256.674L218.401 256.75L218.571 258.974L220.119 257.368L219.398 256.674ZM219.135 253.211L218.368 252.569L218.107 252.881L218.138 253.287L219.135 253.211ZM222.457 249.238L221.73 248.552L221.709 248.574L221.69 248.597L222.457 249.238ZM228.363 242.98V241.98H227.932L227.636 242.294L228.363 242.98ZM229.365 262L228.564 262.599L228.864 263H229.365V262ZM222.58 252.93L221.716 252.427L221.383 252.999L221.779 253.529L222.58 252.93ZM224.268 250.029L225.069 249.431L224.164 248.218L223.403 249.526L224.268 250.029ZM233.197 262V263H235.191L233.999 261.402L233.197 262ZM219.717 235V262H221.717V235H219.717ZM220.717 261H217.447V263H220.717V261ZM218.447 262V235H216.447V262H218.447ZM217.447 236H220.717V234H217.447V236ZM231.605 242.298L223.308 251.175L224.77 252.54L233.067 243.663L231.605 242.298ZM223.319 251.164L218.678 255.98L220.119 257.368L224.759 252.551L223.319 251.164ZM220.396 256.598L220.132 253.135L218.138 253.287L218.401 256.75L220.396 256.598ZM219.902 253.852L223.224 249.88L221.69 248.597L218.368 252.569L219.902 253.852ZM223.184 249.925L229.091 243.667L227.636 242.294L221.73 248.552L223.184 249.925ZM228.363 243.98H232.336V241.98H228.363V243.98ZM230.166 261.401L223.381 252.331L221.779 253.529L228.564 262.599L230.166 261.401ZM223.444 253.433L225.132 250.532L223.403 249.526L221.716 252.427L223.444 253.433ZM223.466 250.627L232.396 262.598L233.999 261.402L225.069 249.431L223.466 250.627ZM233.197 261H229.365V263H233.197V261Z" fill="white"/>
<path fill-rule="evenodd" clip-rule="evenodd" d="M128.467 74.4293L174.632 94.5305C177.888 95.9485 180 99.2019 180 102.802V150.071C180 167.508 171.712 183.871 157.746 194.006L128.296 215.378C122.137 219.847 113.863 219.847 107.704 215.378L78.2542 194.006C64.2885 183.871 56 167.508 56 150.071V102.802C56 99.2019 58.1115 95.9485 61.3681 94.5305L107.533 74.4293C114.217 71.519 121.783 71.519 128.467 74.4293ZM155.37 143.416C155.37 164.101 139.019 180.87 118.849 180.87C98.6796 180.87 82.3288 164.101 82.3288 143.416C82.3288 122.731 98.6796 105.962 118.849 105.962C139.019 105.962 155.37 122.731 155.37 143.416ZM118.849 118.825C119.766 118.825 120.509 119.587 120.509 120.527V131.499V141.713H133.052C133.968 141.713 134.712 142.476 134.712 143.416C134.712 144.356 133.968 145.118 133.052 145.118H119.264C118.118 145.118 117.189 144.166 117.189 142.99V120.527C117.189 119.587 117.932 118.825 118.849 118.825Z" fill="white"/>
<path d="M174.632 94.5305L175.231 93.1552L174.632 94.5305ZM128.467 74.4293L127.868 75.8046L128.467 74.4293ZM157.746 194.006L156.865 192.792L157.746 194.006ZM128.296 215.378L129.177 216.592L128.296 215.378ZM107.704 215.378L108.585 214.164H108.585L107.704 215.378ZM78.2542 194.006L79.1352 192.792H79.1352L78.2542 194.006ZM61.3681 94.5305L60.7693 93.1552H60.7693L61.3681 94.5305ZM107.533 74.4293L108.132 75.8046L107.533 74.4293ZM120.509 141.713H119.009V143.213H120.509V141.713ZM175.231 93.1552L129.066 73.0541L127.868 75.8046L174.033 95.9058L175.231 93.1552ZM181.5 102.802C181.5 98.6155 179.044 94.8157 175.231 93.1552L174.033 95.9058C176.733 97.0813 178.5 99.7883 178.5 102.802H181.5ZM181.5 150.071V102.802H178.5V150.071H181.5ZM158.627 195.22C172.986 184.799 181.5 167.982 181.5 150.071H178.5C178.5 167.033 170.437 182.943 156.865 192.792L158.627 195.22ZM129.177 216.592L158.627 195.22L156.865 192.792L127.415 214.164L129.177 216.592ZM106.823 216.592C113.507 221.443 122.493 221.443 129.177 216.592L127.415 214.164C121.781 218.252 114.219 218.252 108.585 214.164L106.823 216.592ZM77.3732 195.22L106.823 216.592L108.585 214.164L79.1352 192.792L77.3732 195.22ZM54.5 150.071C54.5 167.982 63.0138 184.799 77.3732 195.22L79.1352 192.792C65.5631 182.943 57.5 167.033 57.5 150.071H54.5ZM54.5 102.802V150.071H57.5V102.802H54.5ZM60.7693 93.1552C56.9559 94.8157 54.5 98.6155 54.5 102.802H57.5C57.5 99.7883 59.2672 97.0813 61.967 95.9058L60.7693 93.1552ZM106.934 73.0541L60.7693 93.1552L61.967 95.9058L108.132 75.8046L106.934 73.0541ZM129.066 73.0541C122 69.9774 114 69.9774 106.934 73.0541L108.132 75.8046C114.434 73.0606 121.566 73.0606 127.868 75.8046L129.066 73.0541ZM118.849 182.37C139.883 182.37 156.87 164.894 156.87 143.416H153.87C153.87 163.309 138.155 179.37 118.849 179.37V182.37ZM80.8288 143.416C80.8288 164.894 97.8157 182.37 118.849 182.37V179.37C99.5435 179.37 83.8288 163.309 83.8288 143.416H80.8288ZM118.849 104.462C97.8157 104.462 80.8288 121.938 80.8288 143.416H83.8288C83.8288 123.523 99.5435 107.462 118.849 107.462V104.462ZM156.87 143.416C156.87 121.938 139.883 104.462 118.849 104.462V107.462C138.155 107.462 153.87 123.523 153.87 143.416H156.87ZM122.009 120.527C122.009 118.795 120.63 117.325 118.849 117.325V120.325C118.902 120.325 119.009 120.38 119.009 120.527H122.009ZM122.009 131.499V120.527H119.009V131.499H122.009ZM122.009 141.713V131.499H119.009V141.713H122.009ZM133.052 140.213H120.509V143.213H133.052V140.213ZM136.212 143.416C136.212 141.683 134.832 140.213 133.052 140.213V143.213C133.105 143.213 133.212 143.268 133.212 143.416H136.212ZM133.052 146.618C134.832 146.618 136.212 145.149 136.212 143.416H133.212C133.212 143.564 133.105 143.618 133.052 143.618V146.618ZM119.264 146.618H133.052V143.618H119.264V146.618ZM115.689 142.99C115.689 144.958 117.254 146.618 119.264 146.618V143.618C118.982 143.618 118.689 143.373 118.689 142.99H115.689ZM115.689 120.527V142.99H118.689V120.527H115.689ZM118.849 117.325C117.068 117.325 115.689 118.795 115.689 120.527H118.689C118.689 120.38 118.796 120.325 118.849 120.325V117.325ZM79.7281 96.262C77.1538 85.0736 76.1369 68.3738 81.2943 54.5616C83.8624 47.6838 87.9423 41.569 94.0813 37.1673C100.215 32.7696 108.517 30 119.676 30V27C108.003 27 99.061 29.9053 92.3332 34.7292C85.6109 39.5492 81.2131 46.2028 78.4838 53.5122C73.0464 68.0742 74.1559 85.4236 76.8045 96.9346L79.7281 96.262ZM156.016 96.9099C158.458 85.4109 159.479 68.0861 154.469 53.5481C151.955 46.2549 147.899 39.5967 141.677 34.7636C135.441 29.9199 127.145 27 116.324 27V30C126.578 30 134.201 32.755 139.837 37.1329C145.486 41.5215 149.256 47.6316 151.632 54.5257C156.401 68.3619 155.46 85.0863 153.081 96.2867L156.016 96.9099Z" fill="white"/>
<path fill-rule="evenodd" clip-rule="evenodd" d="M119.366 22.0087C119.732 22.0029 120.1 22 120.47 22H123.97V22.2625C132.862 23.1113 140.231 25.9919 146.146 30.5146C153.217 35.9203 157.675 43.2607 160.366 50.9453C165.667 66.0818 164.527 83.6774 162.048 95.1666L161.31 98.5879L147.625 95.6349L148.363 92.2137C150.537 82.1397 151.291 67.3902 147.153 55.5723C145.125 49.7807 142.031 44.9912 137.643 41.6364C133.484 38.4566 127.67 36.1864 119.359 36.0109C110.433 36.1882 104.161 38.5035 99.6859 41.7446C94.9969 45.1409 91.7432 49.9453 89.6213 55.6858C85.281 67.4278 86.0688 82.0996 88.3547 92.1356L89.1319 95.5482L75.4815 98.6573L74.7043 95.2447C72.0788 83.7177 70.8666 66.0442 76.4897 50.8318C79.3491 43.096 84.0675 35.7706 91.4735 30.4063C97.6984 25.8976 105.447 23.0471 114.814 22.2378V22H118.314C118.667 22 119.017 22.0029 119.366 22.0087Z" fill="white" stroke="white" stroke-width="0.1"/>
</g>
<defs>
<filter id="filter0_d_13_418" x="-2" y="0" width="241" height="284" filterUnits="userSpaceOnUse" color-interpolation-filters="sRGB">
<feFlood flood-opacity="0" result="BackgroundImageFix"/>
<feColorMatrix in="SourceAlpha" type="matrix" values="0 0 0 0 0 0 0 0 0 0 0 0 0 0 0 0 0 0 127 0" result="hardAlpha"/>
<feOffset dy="4"/>
<feGaussianBlur stdDeviation="2"/>
<feComposite in2="hardAlpha" operator="out"/>
<feColorMatrix type="matrix" values="0 0 0 0 0 0 0 0 0 0 0 0 0 0 0 0 0 0 0.25 0"/>
<feBlend mode="normal" in2="BackgroundImageFix" result="effect1_dropShadow_13_418"/>
<feBlend mode="normal" in="SourceGraphic" in2="effect1_dropShadow_13_418" result="shape"/>
</filter>
</defs>
</svg>
