<svg width="80" height="80" viewBox="0 0 80 80" fill="none" xmlns="http://www.w3.org/2000/svg">
<path d="M40 58.3333H40.0333M27.3333 73.3333H52.6667C56.4003 73.3333 58.2672 73.3333 59.6933 72.6067C60.9477 71.9675 61.9676 70.9476 62.6067 69.6932C63.3333 68.2672 63.3333 66.4003 63.3333 62.6666V17.3333C63.3333 13.5996 63.3333 11.7328 62.6067 10.3067C61.9676 9.05228 60.9477 8.03241 59.6933 7.39325C58.2672 6.66663 56.4003 6.66663 52.6667 6.66663H27.3333C23.5996 6.66663 21.7328 6.66663 20.3067 7.39325C19.0523 8.03241 18.0324 9.05228 17.3933 10.3067C16.6667 11.7328 16.6667 13.5996 16.6667 17.3333V62.6666C16.6667 66.4003 16.6667 68.2672 17.3933 69.6932C18.0324 70.9476 19.0523 71.9675 20.3067 72.6067C21.7328 73.3333 23.5996 73.3333 27.3333 73.3333ZM41.6667 58.3333C41.6667 59.2538 40.9205 60 40 60C39.0795 60 38.3333 59.2538 38.3333 58.3333C38.3333 57.4128 39.0795 56.6666 40 56.6666C40.9205 56.6666 41.6667 57.4128 41.6667 58.3333Z" stroke="#261132" stroke-width="10" stroke-linecap="round" stroke-linejoin="round"/>
</svg>
