<svg width="80" height="80" viewBox="0 0 80 80" fill="none" xmlns="http://www.w3.org/2000/svg">
<path d="M60 23.3333V17.3333C60 13.5996 60 11.7328 59.2734 10.3067C58.6342 9.05228 57.6144 8.03241 56.3599 7.39325C54.9339 6.66663 53.067 6.66663 49.3333 6.66663H30.6667C26.933 6.66663 25.0661 6.66663 23.6401 7.39325C22.3857 8.03241 21.3658 9.05228 20.7266 10.3067C20 11.7328 20 13.5996 20 17.3333V23.3333M20 60C16.9001 60 15.3501 60 14.0785 59.6592C10.6276 58.7345 7.93208 56.0391 7.00741 52.5882C6.66667 51.3165 6.66667 49.7665 6.66667 46.6666V39.3333C6.66667 33.7328 6.66667 30.9325 7.75661 28.7934C8.71534 26.9118 10.2451 25.382 12.1268 24.4232C14.2659 23.3333 17.0661 23.3333 22.6667 23.3333H57.3333C62.9339 23.3333 65.7341 23.3333 67.8732 24.4232C69.7549 25.382 71.2847 26.9118 72.2434 28.7934C73.3333 30.9325 73.3333 33.7328 73.3333 39.3333V46.6666C73.3333 49.7665 73.3333 51.3165 72.9926 52.5882C72.0679 56.0391 69.3725 58.7345 65.9215 59.6592C64.6499 60 63.0999 60 60 60M50 35H60M30.6667 73.3333H49.3333C53.067 73.3333 54.9339 73.3333 56.3599 72.6067C57.6144 71.9675 58.6342 70.9476 59.2734 69.6932C60 68.2672 60 66.4003 60 62.6666V57.3333C60 53.5996 60 51.7328 59.2734 50.3067C58.6342 49.0523 57.6144 48.0324 56.3599 47.3933C54.9339 46.6666 53.067 46.6666 49.3333 46.6666H30.6667C26.933 46.6666 25.0661 46.6666 23.6401 47.3933C22.3857 48.0324 21.3658 49.0523 20.7266 50.3067C20 51.7328 20 53.5996 20 57.3333V62.6666C20 66.4003 20 68.2672 20.7266 69.6932C21.3658 70.9476 22.3857 71.9675 23.6401 72.6067C25.0661 73.3333 26.933 73.3333 30.6667 73.3333Z" stroke="#261132" stroke-width="10" stroke-linecap="round" stroke-linejoin="round"/>
</svg>
