<svg width="80" height="80" viewBox="0 0 80 80" fill="none" xmlns="http://www.w3.org/2000/svg">
<path d="M40 20H40.0333M29.3333 73.3333H50.6666C56.2672 73.3333 59.0674 73.3333 61.2066 72.2434C63.0882 71.2846 64.618 69.7548 65.5767 67.8732C66.6666 65.7341 66.6666 62.9338 66.6666 57.3333V22.6666C66.6666 17.0661 66.6666 14.2658 65.5767 12.1267C64.618 10.2451 63.0882 8.71529 61.2066 7.75656C59.0674 6.66663 56.2672 6.66663 50.6666 6.66663H29.3333C23.7328 6.66663 20.9325 6.66663 18.7934 7.75656C16.9118 8.71529 15.382 10.2451 14.4232 12.1267C13.3333 14.2658 13.3333 17.0661 13.3333 22.6666V57.3333C13.3333 62.9338 13.3333 65.7341 14.4232 67.8732C15.382 69.7548 16.9118 71.2846 18.7934 72.2434C20.9325 73.3333 23.7328 73.3333 29.3333 73.3333ZM41.6666 20C41.6666 20.9204 40.9205 21.6666 40 21.6666C39.0795 21.6666 38.3333 20.9204 38.3333 20C38.3333 19.0795 39.0795 18.3333 40 18.3333C40.9205 18.3333 41.6666 19.0795 41.6666 20ZM53.3333 46.6666C53.3333 54.0304 47.3638 60 40 60C32.6362 60 26.6666 54.0304 26.6666 46.6666C26.6666 39.3028 32.6362 33.3333 40 33.3333C47.3638 33.3333 53.3333 39.3028 53.3333 46.6666Z" stroke="#261132" stroke-width="10" stroke-linecap="round" stroke-linejoin="round"/>
</svg>
