<svg width="80" height="80" viewBox="0 0 80 80" fill="none" xmlns="http://www.w3.org/2000/svg">
<path d="M56.6667 10L40 23.3333L23.3333 10M22.6667 70H57.3333C62.9339 70 65.7341 70 67.8732 68.9101C69.7549 67.9513 71.2847 66.4215 72.2434 64.5399C73.3333 62.4008 73.3333 59.6005 73.3333 54V39.3333C73.3333 33.7328 73.3333 30.9325 72.2434 28.7934C71.2847 26.9118 69.7549 25.382 67.8732 24.4233C65.7341 23.3333 62.9339 23.3333 57.3333 23.3333H22.6667C17.0661 23.3333 14.2659 23.3333 12.1268 24.4233C10.2451 25.382 8.71534 26.9118 7.7566 28.7934C6.66667 30.9325 6.66667 33.7328 6.66667 39.3333V54C6.66667 59.6005 6.66667 62.4008 7.7566 64.5399C8.71534 66.4215 10.2451 67.9513 12.1268 68.9101C14.2659 70 17.0661 70 22.6667 70Z" stroke="#261132" stroke-width="10" stroke-linecap="round" stroke-linejoin="round"/>
</svg>
